<mxfile host="app.diagrams.net" modified="2024-04-14T05:04:45.465Z" agent="Mozilla/5.0 (Windows NT 10.0; Win64; x64) AppleWebKit/537.36 (KHTML, like Gecko) Chrome/123.0.0.0 Safari/537.36" etag="iw24NtQuxZGwmYOLIGmO" version="24.2.3" type="device" pages="5">
  <diagram id="C5RBs43oDa-KdzZeNtuy" name="Page-1">
    <mxGraphModel dx="1434" dy="738" grid="1" gridSize="10" guides="1" tooltips="1" connect="1" arrows="1" fold="1" page="1" pageScale="1" pageWidth="827" pageHeight="1169" math="0" shadow="0">
      <root>
        <mxCell id="WIyWlLk6GJQsqaUBKTNV-0" />
        <mxCell id="WIyWlLk6GJQsqaUBKTNV-1" parent="WIyWlLk6GJQsqaUBKTNV-0" />
        <mxCell id="qVBupRVu0tQ40ZCtyZJ1-1" value="" style="edgeStyle=orthogonalEdgeStyle;rounded=1;orthogonalLoop=1;jettySize=auto;html=1;flowAnimation=1;strokeColor=#FF0080;strokeWidth=2;" edge="1" parent="WIyWlLk6GJQsqaUBKTNV-1">
          <mxGeometry relative="1" as="geometry">
            <mxPoint x="740" y="510" as="targetPoint" />
            <Array as="points">
              <mxPoint x="739.5" y="427" />
            </Array>
            <mxPoint x="739.5" y="460" as="sourcePoint" />
          </mxGeometry>
        </mxCell>
        <mxCell id="qVBupRVu0tQ40ZCtyZJ1-2" value="&lt;font style=&quot;font-size: 13px;&quot;&gt;&lt;b&gt;BUCKET_NAME&lt;/b&gt;&lt;/font&gt;" style="rounded=1;whiteSpace=wrap;html=1;strokeColor=none;" vertex="1" parent="WIyWlLk6GJQsqaUBKTNV-1">
          <mxGeometry x="525" y="365" width="78" height="30" as="geometry" />
        </mxCell>
        <mxCell id="qVBupRVu0tQ40ZCtyZJ1-3" value="&lt;div style=&quot;text-align: right;&quot;&gt;&lt;br&gt;&lt;/div&gt;" style="rounded=1;whiteSpace=wrap;html=1;strokeColor=none;" vertex="1" parent="WIyWlLk6GJQsqaUBKTNV-1">
          <mxGeometry x="548" y="426" width="72" height="30" as="geometry" />
        </mxCell>
        <mxCell id="qVBupRVu0tQ40ZCtyZJ1-7" value="&lt;b&gt;initiate_model_pusher&lt;/b&gt;" style="whiteSpace=wrap;html=1;fillColor=#6666FF;strokeColor=#3700CC;fontColor=#ffffff;rounded=1;" vertex="1" parent="WIyWlLk6GJQsqaUBKTNV-1">
          <mxGeometry x="676.22" y="510" width="140" height="30" as="geometry" />
        </mxCell>
        <mxCell id="qVBupRVu0tQ40ZCtyZJ1-12" value="" style="edgeStyle=orthogonalEdgeStyle;rounded=0;orthogonalLoop=1;jettySize=auto;html=1;flowAnimation=1;strokeColor=#006600;strokeWidth=2;" edge="1" parent="WIyWlLk6GJQsqaUBKTNV-1">
          <mxGeometry relative="1" as="geometry">
            <mxPoint x="546" y="665.12" as="sourcePoint" />
            <mxPoint x="546.4994117647059" y="734.1199999999998" as="targetPoint" />
          </mxGeometry>
        </mxCell>
        <mxCell id="qVBupRVu0tQ40ZCtyZJ1-13" value="&lt;span style=&quot;font-size: 13px;&quot;&gt;&lt;b&gt;best.pt&lt;/b&gt;&lt;/span&gt;" style="rounded=1;whiteSpace=wrap;html=1;strokeColor=none;" vertex="1" parent="WIyWlLk6GJQsqaUBKTNV-1">
          <mxGeometry x="511" y="635" width="60" height="30" as="geometry" />
        </mxCell>
        <mxCell id="qVBupRVu0tQ40ZCtyZJ1-14" value="&lt;b&gt;model_pusher_artifact&lt;/b&gt;" style="whiteSpace=wrap;html=1;fillColor=#FFFF99;strokeColor=#d6b656;rounded=1;" vertex="1" parent="WIyWlLk6GJQsqaUBKTNV-1">
          <mxGeometry x="680" y="759" width="139.94" height="40" as="geometry" />
        </mxCell>
        <mxCell id="qVBupRVu0tQ40ZCtyZJ1-15" value="" style="rounded=1;whiteSpace=wrap;html=1;strokeColor=none;" vertex="1" parent="WIyWlLk6GJQsqaUBKTNV-1">
          <mxGeometry x="80" y="770" width="108.75" height="30" as="geometry" />
        </mxCell>
        <mxCell id="qVBupRVu0tQ40ZCtyZJ1-18" value="&lt;font size=&quot;1&quot; color=&quot;#ff0000&quot; style=&quot;&quot;&gt;&lt;b style=&quot;font-size: 18px;&quot;&gt;ISD_Model_Pusher_Workflow&lt;/b&gt;&lt;/font&gt;" style="rounded=1;whiteSpace=wrap;html=1;strokeColor=none;" vertex="1" parent="WIyWlLk6GJQsqaUBKTNV-1">
          <mxGeometry x="650" y="210" width="290" height="30" as="geometry" />
        </mxCell>
        <mxCell id="qVBupRVu0tQ40ZCtyZJ1-19" value="&lt;b&gt;model_pusher_config&lt;/b&gt;" style="rounded=1;whiteSpace=wrap;html=1;strokeWidth=1;fillColor=#FFFF99;strokeColor=#d6b656;shadow=0;glass=0;flipV=1;" vertex="1" parent="WIyWlLk6GJQsqaUBKTNV-1">
          <mxGeometry x="680" y="392.9" width="132.44" height="34.1" as="geometry" />
        </mxCell>
        <mxCell id="qVBupRVu0tQ40ZCtyZJ1-20" value="" style="endArrow=classic;html=1;rounded=0;flowAnimation=1;strokeColor=#006600;strokeWidth=2;" edge="1" parent="WIyWlLk6GJQsqaUBKTNV-1">
          <mxGeometry width="50" height="50" relative="1" as="geometry">
            <mxPoint x="671" y="613" as="sourcePoint" />
            <mxPoint x="577" y="613" as="targetPoint" />
          </mxGeometry>
        </mxCell>
        <mxCell id="qVBupRVu0tQ40ZCtyZJ1-25" value="" style="edgeStyle=entityRelationEdgeStyle;startArrow=none;endArrow=none;segment=10;curved=1;sourcePerimeterSpacing=0;targetPerimeterSpacing=0;rounded=0;strokeColor=#009999;strokeWidth=2;" edge="1" parent="WIyWlLk6GJQsqaUBKTNV-1">
          <mxGeometry relative="1" as="geometry">
            <mxPoint x="620" y="380" as="sourcePoint" />
            <mxPoint x="680" y="409" as="targetPoint" />
            <Array as="points">
              <mxPoint x="760" y="509" />
              <mxPoint x="630" y="364" />
              <mxPoint x="770" y="509" />
              <mxPoint x="770" y="499" />
            </Array>
          </mxGeometry>
        </mxCell>
        <mxCell id="qVBupRVu0tQ40ZCtyZJ1-26" value="" style="edgeStyle=entityRelationEdgeStyle;startArrow=none;endArrow=none;segment=10;curved=1;sourcePerimeterSpacing=0;targetPerimeterSpacing=0;rounded=0;strokeColor=#006600;strokeWidth=2;exitX=1;exitY=0.5;exitDx=0;exitDy=0;entryX=0;entryY=0.75;entryDx=0;entryDy=0;" edge="1" parent="WIyWlLk6GJQsqaUBKTNV-1" source="qVBupRVu0tQ40ZCtyZJ1-3" target="qVBupRVu0tQ40ZCtyZJ1-19">
          <mxGeometry relative="1" as="geometry">
            <mxPoint x="639" y="397" as="sourcePoint" />
            <mxPoint x="690" y="419" as="targetPoint" />
            <Array as="points">
              <mxPoint x="770" y="519" />
              <mxPoint x="640" y="374" />
              <mxPoint x="780" y="519" />
              <mxPoint x="780" y="509" />
            </Array>
          </mxGeometry>
        </mxCell>
        <mxCell id="qVBupRVu0tQ40ZCtyZJ1-31" value="" style="edgeStyle=orthogonalEdgeStyle;rounded=1;orthogonalLoop=1;jettySize=auto;html=1;flowAnimation=1;strokeColor=#FF0080;strokeWidth=2;" edge="1" parent="WIyWlLk6GJQsqaUBKTNV-1">
          <mxGeometry relative="1" as="geometry">
            <mxPoint x="741" y="630" as="sourcePoint" />
            <mxPoint x="740.7199999999998" y="749.31" as="targetPoint" />
          </mxGeometry>
        </mxCell>
        <mxCell id="qVBupRVu0tQ40ZCtyZJ1-45" value="" style="image;aspect=fixed;html=1;points=[];align=center;fontSize=12;image=img/lib/azure2/general/File.svg;" vertex="1" parent="WIyWlLk6GJQsqaUBKTNV-1">
          <mxGeometry x="528" y="587.12" width="39.36" height="48.5" as="geometry" />
        </mxCell>
        <mxCell id="qVBupRVu0tQ40ZCtyZJ1-54" value="&lt;b&gt;S3_MODEL_KEY_PATH&lt;/b&gt;" style="text;whiteSpace=wrap;html=1;" vertex="1" parent="WIyWlLk6GJQsqaUBKTNV-1">
          <mxGeometry x="480" y="427" width="144" height="40" as="geometry" />
        </mxCell>
        <mxCell id="qVBupRVu0tQ40ZCtyZJ1-55" value="&lt;b&gt;model_trainer_artifact&lt;/b&gt;" style="rounded=1;whiteSpace=wrap;html=1;strokeWidth=1;fillColor=#FFFF99;strokeColor=#d6b656;shadow=0;glass=0;flipV=1;" vertex="1" parent="WIyWlLk6GJQsqaUBKTNV-1">
          <mxGeometry x="920" y="300" width="140" height="34.1" as="geometry" />
        </mxCell>
        <mxCell id="k7Uh6FpzbnQSceZ30Enp-0" value="" style="edgeStyle=segmentEdgeStyle;endArrow=classic;html=1;curved=0;rounded=1;endSize=8;startSize=8;flowAnimation=1;strokeWidth=2;strokeColor=#FF0080;" edge="1" parent="WIyWlLk6GJQsqaUBKTNV-1">
          <mxGeometry width="50" height="50" relative="1" as="geometry">
            <mxPoint x="979" y="340" as="sourcePoint" />
            <mxPoint x="819" y="410" as="targetPoint" />
            <Array as="points">
              <mxPoint x="979" y="410" />
              <mxPoint x="819" y="410" />
            </Array>
          </mxGeometry>
        </mxCell>
        <mxCell id="5IuRKprVKLMt7UrfSrTx-0" value="&lt;font style=&quot;font-size: 13px;&quot;&gt;&lt;b&gt;trained_model_file_path&lt;/b&gt;&lt;/font&gt;" style="rounded=1;whiteSpace=wrap;html=1;strokeColor=none;" vertex="1" parent="WIyWlLk6GJQsqaUBKTNV-1">
          <mxGeometry x="1171" y="304.1" width="78" height="30" as="geometry" />
        </mxCell>
        <mxCell id="5IuRKprVKLMt7UrfSrTx-1" value="" style="edgeStyle=entityRelationEdgeStyle;startArrow=none;endArrow=none;segment=10;curved=1;sourcePerimeterSpacing=0;targetPerimeterSpacing=0;rounded=0;strokeColor=#009999;strokeWidth=2;flowAnimation=1;" edge="1" parent="WIyWlLk6GJQsqaUBKTNV-1">
          <mxGeometry relative="1" as="geometry">
            <mxPoint x="1066" y="322" as="sourcePoint" />
            <mxPoint x="1130" y="322" as="targetPoint" />
            <Array as="points">
              <mxPoint x="1197" y="444" />
              <mxPoint x="1007" y="245" />
              <mxPoint x="1067" y="299" />
              <mxPoint x="1207" y="444" />
              <mxPoint x="1207" y="434" />
            </Array>
          </mxGeometry>
        </mxCell>
        <mxCell id="5IuRKprVKLMt7UrfSrTx-2" value="&lt;b&gt;upload model to s3&lt;/b&gt;" style="whiteSpace=wrap;html=1;fillColor=#6666FF;strokeColor=#3700CC;fontColor=#ffffff;rounded=1;" vertex="1" parent="WIyWlLk6GJQsqaUBKTNV-1">
          <mxGeometry x="672.44" y="597.12" width="140" height="30" as="geometry" />
        </mxCell>
        <mxCell id="XGXuaM4_M6PkSlMotpCE-0" value="&lt;span style=&quot;font-size: 13px;&quot;&gt;&lt;b&gt;s3_model_path&lt;/b&gt;&lt;/span&gt;" style="rounded=1;whiteSpace=wrap;html=1;strokeColor=none;" vertex="1" parent="WIyWlLk6GJQsqaUBKTNV-1">
          <mxGeometry x="520" y="734" width="87.75" height="30" as="geometry" />
        </mxCell>
        <mxCell id="XGXuaM4_M6PkSlMotpCE-1" value="&lt;b style=&quot;font-size: 13px;&quot;&gt;bucket_name&lt;/b&gt;" style="rounded=1;whiteSpace=wrap;html=1;strokeColor=none;" vertex="1" parent="WIyWlLk6GJQsqaUBKTNV-1">
          <mxGeometry x="530" y="788" width="80.44" height="30" as="geometry" />
        </mxCell>
        <mxCell id="XGXuaM4_M6PkSlMotpCE-2" value="" style="edgeStyle=entityRelationEdgeStyle;startArrow=none;endArrow=none;segment=10;curved=1;sourcePerimeterSpacing=0;targetPerimeterSpacing=0;rounded=0;strokeColor=#990099;strokeWidth=2;" edge="1" parent="WIyWlLk6GJQsqaUBKTNV-1">
          <mxGeometry relative="1" as="geometry">
            <mxPoint x="616" y="747" as="sourcePoint" />
            <mxPoint x="680.5" y="778" as="targetPoint" />
            <Array as="points">
              <mxPoint x="626" y="747" />
              <mxPoint x="626" y="747" />
              <mxPoint x="646" y="757" />
              <mxPoint x="656" y="757" />
              <mxPoint x="619.5" y="1096" />
              <mxPoint x="760.5" y="878" />
              <mxPoint x="649.5" y="1016" />
              <mxPoint x="630.5" y="733" />
              <mxPoint x="770.5" y="878" />
              <mxPoint x="770.5" y="868" />
            </Array>
          </mxGeometry>
        </mxCell>
        <mxCell id="XGXuaM4_M6PkSlMotpCE-3" value="" style="edgeStyle=entityRelationEdgeStyle;startArrow=none;endArrow=none;segment=10;curved=1;sourcePerimeterSpacing=0;targetPerimeterSpacing=0;rounded=0;strokeColor=#006600;strokeWidth=2;entryX=0;entryY=0.5;entryDx=0;entryDy=0;" edge="1" parent="WIyWlLk6GJQsqaUBKTNV-1">
          <mxGeometry relative="1" as="geometry">
            <mxPoint x="617" y="805" as="sourcePoint" />
            <mxPoint x="678" y="782" as="targetPoint" />
            <Array as="points">
              <mxPoint x="626" y="797" />
              <mxPoint x="626" y="817" />
              <mxPoint x="626" y="817" />
              <mxPoint x="676" y="777" />
              <mxPoint x="616" y="817" />
              <mxPoint x="769.5" y="888" />
              <mxPoint x="618.5" y="966" />
              <mxPoint x="629.5" y="1076" />
              <mxPoint x="639.5" y="743" />
              <mxPoint x="779.5" y="888" />
              <mxPoint x="779.5" y="878" />
            </Array>
          </mxGeometry>
        </mxCell>
        <mxCell id="XGXuaM4_M6PkSlMotpCE-4" value="" style="edgeStyle=orthogonalEdgeStyle;rounded=1;orthogonalLoop=1;jettySize=auto;html=1;flowAnimation=1;strokeColor=#FF0080;strokeWidth=2;" edge="1" parent="WIyWlLk6GJQsqaUBKTNV-1">
          <mxGeometry relative="1" as="geometry">
            <mxPoint x="740" y="592" as="targetPoint" />
            <Array as="points">
              <mxPoint x="739.5" y="542" />
            </Array>
            <mxPoint x="739.5" y="575" as="sourcePoint" />
          </mxGeometry>
        </mxCell>
      </root>
    </mxGraphModel>
  </diagram>
  <diagram name="Page-2" id="bf5nBjF9KYC4StDarAz9">
    <mxGraphModel dx="2534" dy="738" grid="1" gridSize="10" guides="1" tooltips="1" connect="1" arrows="1" fold="1" page="1" pageScale="1" pageWidth="1100" pageHeight="850" math="0" shadow="0">
      <root>
        <mxCell id="0" />
        <mxCell id="1" parent="0" />
        <mxCell id="nSRVxIwpDMMca3vvs-4J-1" value="" style="edgeStyle=orthogonalEdgeStyle;rounded=1;orthogonalLoop=1;jettySize=auto;html=1;flowAnimation=1;strokeColor=#FF0080;strokeWidth=2;" parent="1" source="nSRVxIwpDMMca3vvs-4J-6" edge="1">
          <mxGeometry relative="1" as="geometry">
            <mxPoint x="357.56" y="565" as="targetPoint" />
            <Array as="points">
              <mxPoint x="358" y="540" />
              <mxPoint x="358" y="540" />
            </Array>
          </mxGeometry>
        </mxCell>
        <mxCell id="nSRVxIwpDMMca3vvs-4J-2" value="&lt;b&gt;splitting_data&lt;/b&gt;" style="rounded=1;whiteSpace=wrap;html=1;fillColor=#6666FF;fontColor=#ffffff;strokeColor=#3700CC;flipH=1;container=1;" parent="1" vertex="1">
          <mxGeometry x="297.56" y="569" width="132.44" height="31" as="geometry" />
        </mxCell>
        <mxCell id="nSRVxIwpDMMca3vvs-4J-3" value="&lt;b&gt;df_train&lt;/b&gt;" style="whiteSpace=wrap;html=1;fillColor=#6666FF;strokeColor=#3700CC;fontColor=#ffffff;rounded=1;flipH=1;" parent="1" vertex="1">
          <mxGeometry x="220" y="670" width="120" height="30" as="geometry" />
        </mxCell>
        <mxCell id="nSRVxIwpDMMca3vvs-4J-4" value="&lt;b&gt;prepare data transformatoin artifacts&lt;/b&gt;" style="whiteSpace=wrap;html=1;fillColor=#6666FF;strokeColor=#3700CC;fontColor=#ffffff;rounded=1;" parent="1" vertex="1">
          <mxGeometry x="249" y="816" width="220" height="35" as="geometry" />
        </mxCell>
        <mxCell id="nSRVxIwpDMMca3vvs-4J-5" value="&lt;font size=&quot;1&quot; color=&quot;#ff0000&quot; style=&quot;&quot;&gt;&lt;b style=&quot;font-size: 18px;&quot;&gt;NER_Data_Transformation_Workflow&lt;/b&gt;&lt;/font&gt;" style="rounded=1;whiteSpace=wrap;html=1;strokeColor=none;" parent="1" vertex="1">
          <mxGeometry x="240" y="280" width="290" height="30" as="geometry" />
        </mxCell>
        <mxCell id="nSRVxIwpDMMca3vvs-4J-6" value="&lt;b&gt;data_transformation_config&lt;/b&gt;" style="rounded=1;whiteSpace=wrap;html=1;strokeWidth=1;fillColor=#FFFF99;strokeColor=#d6b656;shadow=0;glass=0;flipV=1;" parent="1" vertex="1">
          <mxGeometry x="284.81" y="475.9" width="172.44" height="34.1" as="geometry" />
        </mxCell>
        <mxCell id="nSRVxIwpDMMca3vvs-4J-7" value="" style="edgeStyle=orthogonalEdgeStyle;rounded=1;orthogonalLoop=1;jettySize=auto;html=1;flowAnimation=0;strokeColor=#CC0066;strokeWidth=2;" parent="1" source="nSRVxIwpDMMca3vvs-4J-37" target="nSRVxIwpDMMca3vvs-4J-8" edge="1">
          <mxGeometry relative="1" as="geometry">
            <mxPoint x="361" y="922" as="sourcePoint" />
            <Array as="points">
              <mxPoint x="361" y="982" />
              <mxPoint x="361" y="982" />
            </Array>
          </mxGeometry>
        </mxCell>
        <mxCell id="nSRVxIwpDMMca3vvs-4J-8" value="&lt;b&gt;To be continue to model_training component&lt;/b&gt;" style="whiteSpace=wrap;html=1;fillColor=#f8cecc;strokeColor=#b85450;rounded=1;" parent="1" vertex="1">
          <mxGeometry x="280" y="1012" width="150" height="60" as="geometry" />
        </mxCell>
        <mxCell id="nSRVxIwpDMMca3vvs-4J-9" value="" style="edgeStyle=segmentEdgeStyle;endArrow=classic;html=1;curved=0;rounded=1;endSize=8;startSize=8;flowAnimation=1;strokeWidth=2;strokeColor=#CC0066;" parent="1" edge="1">
          <mxGeometry width="50" height="50" relative="1" as="geometry">
            <mxPoint x="621" y="416" as="sourcePoint" />
            <mxPoint x="461" y="496" as="targetPoint" />
            <Array as="points">
              <mxPoint x="621" y="496" />
              <mxPoint x="461" y="496" />
            </Array>
          </mxGeometry>
        </mxCell>
        <mxCell id="nSRVxIwpDMMca3vvs-4J-10" value="&lt;b&gt;Data Transformation Config&lt;/b&gt;" style="rounded=1;whiteSpace=wrap;html=1;strokeWidth=4;fillColor=#FFFFFF;strokeColor=#d6b656;shadow=0;glass=0;flipV=1;" parent="1" vertex="1">
          <mxGeometry x="538" y="377.9" width="172.44" height="34.1" as="geometry" />
        </mxCell>
        <mxCell id="nSRVxIwpDMMca3vvs-4J-11" value="data_transformation_dir" style="whiteSpace=wrap;html=1;rounded=1;arcSize=50;align=center;verticalAlign=middle;strokeWidth=1;autosize=1;spacing=4;treeFolding=1;treeMoving=1;newEdgeStyle={&quot;edgeStyle&quot;:&quot;entityRelationEdgeStyle&quot;,&quot;startArrow&quot;:&quot;none&quot;,&quot;endArrow&quot;:&quot;none&quot;,&quot;segment&quot;:10,&quot;curved&quot;:1,&quot;sourcePerimeterSpacing&quot;:0,&quot;targetPerimeterSpacing&quot;:0};strokeColor=none;" parent="1" vertex="1">
          <mxGeometry x="757" y="250" width="135" height="30" as="geometry" />
        </mxCell>
        <mxCell id="nSRVxIwpDMMca3vvs-4J-12" value="" style="edgeStyle=entityRelationEdgeStyle;startArrow=none;endArrow=none;segment=10;curved=1;sourcePerimeterSpacing=0;targetPerimeterSpacing=0;rounded=0;strokeWidth=2;strokeColor=#9933FF;exitX=0.711;exitY=1.079;exitDx=0;exitDy=0;exitPerimeter=0;" parent="1" target="nSRVxIwpDMMca3vvs-4J-11" edge="1">
          <mxGeometry relative="1" as="geometry">
            <mxPoint x="662.60484" y="375.2060999999999" as="sourcePoint" />
            <Array as="points">
              <mxPoint x="651" y="366" />
              <mxPoint x="723" y="346" />
            </Array>
          </mxGeometry>
        </mxCell>
        <mxCell id="nSRVxIwpDMMca3vvs-4J-13" value="unique_labels_path" style="whiteSpace=wrap;html=1;rounded=1;arcSize=50;align=center;verticalAlign=middle;strokeWidth=1;autosize=1;spacing=4;treeFolding=1;treeMoving=1;newEdgeStyle={&quot;edgeStyle&quot;:&quot;entityRelationEdgeStyle&quot;,&quot;startArrow&quot;:&quot;none&quot;,&quot;endArrow&quot;:&quot;none&quot;,&quot;segment&quot;:10,&quot;curved&quot;:1,&quot;sourcePerimeterSpacing&quot;:0,&quot;targetPerimeterSpacing&quot;:0};strokeColor=none;" parent="1" vertex="1">
          <mxGeometry x="757" y="509" width="150" height="30" as="geometry" />
        </mxCell>
        <mxCell id="nSRVxIwpDMMca3vvs-4J-14" value="" style="edgeStyle=entityRelationEdgeStyle;startArrow=none;endArrow=none;segment=10;curved=1;sourcePerimeterSpacing=0;targetPerimeterSpacing=0;rounded=0;exitX=0.692;exitY=0.023;exitDx=0;exitDy=0;strokeWidth=2;strokeColor=#FF3333;exitPerimeter=0;" parent="1" target="nSRVxIwpDMMca3vvs-4J-13" edge="1">
          <mxGeometry relative="1" as="geometry">
            <mxPoint x="659.3284799999999" y="411.21569999999986" as="sourcePoint" />
            <Array as="points">
              <mxPoint x="661" y="410" />
              <mxPoint x="690" y="487.81" />
              <mxPoint x="680" y="487.81" />
              <mxPoint x="742" y="467.81" />
            </Array>
          </mxGeometry>
        </mxCell>
        <mxCell id="nSRVxIwpDMMca3vvs-4J-15" value="df_test_path" style="whiteSpace=wrap;html=1;rounded=1;arcSize=50;align=center;verticalAlign=middle;strokeWidth=1;autosize=1;spacing=4;treeFolding=1;treeMoving=1;newEdgeStyle={&quot;edgeStyle&quot;:&quot;entityRelationEdgeStyle&quot;,&quot;startArrow&quot;:&quot;none&quot;,&quot;endArrow&quot;:&quot;none&quot;,&quot;segment&quot;:10,&quot;curved&quot;:1,&quot;sourcePerimeterSpacing&quot;:0,&quot;targetPerimeterSpacing&quot;:0};strokeColor=none;" parent="1" vertex="1">
          <mxGeometry x="757" y="470.95" width="110" height="30" as="geometry" />
        </mxCell>
        <mxCell id="nSRVxIwpDMMca3vvs-4J-16" value="" style="edgeStyle=entityRelationEdgeStyle;startArrow=none;endArrow=none;segment=10;curved=1;sourcePerimeterSpacing=0;targetPerimeterSpacing=0;rounded=0;exitX=0.846;exitY=-0.023;exitDx=0;exitDy=0;exitPerimeter=0;strokeWidth=2;strokeColor=#004C99;" parent="1" target="nSRVxIwpDMMca3vvs-4J-15" edge="1">
          <mxGeometry relative="1" as="geometry">
            <mxPoint x="685.8842400000001" y="412.7842999999999" as="sourcePoint" />
            <Array as="points">
              <mxPoint x="700" y="442.81" />
              <mxPoint x="690" y="452.63" />
              <mxPoint x="680" y="452.63" />
              <mxPoint x="742" y="432.63" />
            </Array>
          </mxGeometry>
        </mxCell>
        <mxCell id="nSRVxIwpDMMca3vvs-4J-17" value="df_val_path" style="whiteSpace=wrap;html=1;rounded=1;arcSize=50;align=center;verticalAlign=middle;strokeWidth=1;autosize=1;spacing=4;treeFolding=1;treeMoving=1;newEdgeStyle={&quot;edgeStyle&quot;:&quot;entityRelationEdgeStyle&quot;,&quot;startArrow&quot;:&quot;none&quot;,&quot;endArrow&quot;:&quot;none&quot;,&quot;segment&quot;:10,&quot;curved&quot;:1,&quot;sourcePerimeterSpacing&quot;:0,&quot;targetPerimeterSpacing&quot;:0};strokeColor=none;" parent="1" vertex="1">
          <mxGeometry x="758" y="432.81" width="106" height="30" as="geometry" />
        </mxCell>
        <mxCell id="nSRVxIwpDMMca3vvs-4J-18" value="" style="edgeStyle=entityRelationEdgeStyle;startArrow=none;endArrow=none;segment=10;curved=1;sourcePerimeterSpacing=0;targetPerimeterSpacing=0;rounded=0;exitX=0.957;exitY=0;exitDx=0;exitDy=0;exitPerimeter=0;strokeWidth=2;strokeColor=#99004D;" parent="1" target="nSRVxIwpDMMca3vvs-4J-17" edge="1">
          <mxGeometry relative="1" as="geometry">
            <mxPoint x="701.0250799999999" y="411.9999999999999" as="sourcePoint" />
            <Array as="points">
              <mxPoint x="696" y="409.71000000000004" />
              <mxPoint x="686" y="419.53" />
              <mxPoint x="676" y="419.53" />
              <mxPoint x="738" y="399.53" />
            </Array>
          </mxGeometry>
        </mxCell>
        <mxCell id="nSRVxIwpDMMca3vvs-4J-19" value="df_train_path" style="whiteSpace=wrap;html=1;rounded=1;arcSize=50;align=center;verticalAlign=middle;strokeWidth=1;autosize=1;spacing=4;treeFolding=1;treeMoving=1;newEdgeStyle={&quot;edgeStyle&quot;:&quot;entityRelationEdgeStyle&quot;,&quot;startArrow&quot;:&quot;none&quot;,&quot;endArrow&quot;:&quot;none&quot;,&quot;segment&quot;:10,&quot;curved&quot;:1,&quot;sourcePerimeterSpacing&quot;:0,&quot;targetPerimeterSpacing&quot;:0};strokeColor=none;" parent="1" vertex="1">
          <mxGeometry x="758" y="399" width="110" height="30" as="geometry" />
        </mxCell>
        <mxCell id="nSRVxIwpDMMca3vvs-4J-20" value="" style="edgeStyle=entityRelationEdgeStyle;startArrow=none;endArrow=none;segment=10;curved=1;sourcePerimeterSpacing=0;targetPerimeterSpacing=0;rounded=0;exitX=1;exitY=0.75;exitDx=0;exitDy=0;strokeWidth=2;strokeColor=#660000;" parent="1" target="nSRVxIwpDMMca3vvs-4J-19" edge="1">
          <mxGeometry relative="1" as="geometry">
            <mxPoint x="713.44" y="398.475" as="sourcePoint" />
            <Array as="points">
              <mxPoint x="701" y="365.09000000000003" />
              <mxPoint x="722" y="405" />
              <mxPoint x="691" y="374.90999999999997" />
              <mxPoint x="681" y="374.90999999999997" />
              <mxPoint x="743" y="354.90999999999997" />
            </Array>
          </mxGeometry>
        </mxCell>
        <mxCell id="nSRVxIwpDMMca3vvs-4J-21" value="labels_to_ids_path" style="whiteSpace=wrap;html=1;rounded=1;arcSize=50;align=center;verticalAlign=middle;strokeWidth=1;autosize=1;spacing=4;treeFolding=1;treeMoving=1;newEdgeStyle={&quot;edgeStyle&quot;:&quot;entityRelationEdgeStyle&quot;,&quot;startArrow&quot;:&quot;none&quot;,&quot;endArrow&quot;:&quot;none&quot;,&quot;segment&quot;:10,&quot;curved&quot;:1,&quot;sourcePerimeterSpacing&quot;:0,&quot;targetPerimeterSpacing&quot;:0};strokeColor=none;" parent="1" vertex="1">
          <mxGeometry x="757" y="288" width="140" height="30" as="geometry" />
        </mxCell>
        <mxCell id="nSRVxIwpDMMca3vvs-4J-22" value="" style="edgeStyle=entityRelationEdgeStyle;startArrow=none;endArrow=none;segment=10;curved=1;sourcePerimeterSpacing=0;targetPerimeterSpacing=0;rounded=0;strokeWidth=2;strokeColor=#994C00;exitX=0.813;exitY=1.103;exitDx=0;exitDy=0;exitPerimeter=0;" parent="1" target="nSRVxIwpDMMca3vvs-4J-21" edge="1">
          <mxGeometry relative="1" as="geometry">
            <mxPoint x="680.19372" y="374.3876999999999" as="sourcePoint" />
            <Array as="points">
              <mxPoint x="661" y="403" />
              <mxPoint x="733" y="383" />
            </Array>
          </mxGeometry>
        </mxCell>
        <mxCell id="nSRVxIwpDMMca3vvs-4J-23" value="ids_to_labels_path" style="whiteSpace=wrap;html=1;rounded=1;arcSize=50;align=center;verticalAlign=middle;strokeWidth=1;autosize=1;spacing=4;treeFolding=1;treeMoving=1;newEdgeStyle={&quot;edgeStyle&quot;:&quot;entityRelationEdgeStyle&quot;,&quot;startArrow&quot;:&quot;none&quot;,&quot;endArrow&quot;:&quot;none&quot;,&quot;segment&quot;:10,&quot;curved&quot;:1,&quot;sourcePerimeterSpacing&quot;:0,&quot;targetPerimeterSpacing&quot;:0};strokeColor=none;" parent="1" vertex="1">
          <mxGeometry x="754.5" y="329" width="140" height="30" as="geometry" />
        </mxCell>
        <mxCell id="nSRVxIwpDMMca3vvs-4J-24" value="" style="edgeStyle=entityRelationEdgeStyle;startArrow=none;endArrow=none;segment=10;curved=1;sourcePerimeterSpacing=0;targetPerimeterSpacing=0;rounded=0;strokeWidth=2;strokeColor=#006600;exitX=0.948;exitY=1.009;exitDx=0;exitDy=0;exitPerimeter=0;" parent="1" target="nSRVxIwpDMMca3vvs-4J-23" edge="1">
          <mxGeometry relative="1" as="geometry">
            <mxPoint x="703.4731200000001" y="377.59309999999994" as="sourcePoint" />
            <Array as="points">
              <mxPoint x="711" y="370" />
              <mxPoint x="671" y="433" />
              <mxPoint x="743" y="413" />
            </Array>
          </mxGeometry>
        </mxCell>
        <mxCell id="nSRVxIwpDMMca3vvs-4J-25" value="ids_to_labels_gcp_path" style="whiteSpace=wrap;html=1;rounded=1;arcSize=50;align=center;verticalAlign=middle;strokeWidth=1;autosize=1;spacing=4;treeFolding=1;treeMoving=1;newEdgeStyle={&quot;edgeStyle&quot;:&quot;entityRelationEdgeStyle&quot;,&quot;startArrow&quot;:&quot;none&quot;,&quot;endArrow&quot;:&quot;none&quot;,&quot;segment&quot;:10,&quot;curved&quot;:1,&quot;sourcePerimeterSpacing&quot;:0,&quot;targetPerimeterSpacing&quot;:0};strokeColor=none;" parent="1" vertex="1">
          <mxGeometry x="758" y="360" width="170" height="30" as="geometry" />
        </mxCell>
        <mxCell id="nSRVxIwpDMMca3vvs-4J-26" value="" style="edgeStyle=entityRelationEdgeStyle;startArrow=none;endArrow=none;segment=10;curved=1;sourcePerimeterSpacing=0;targetPerimeterSpacing=0;rounded=0;strokeWidth=2;strokeColor=#666600;exitX=0.948;exitY=1.009;exitDx=0;exitDy=0;exitPerimeter=0;" parent="1" target="nSRVxIwpDMMca3vvs-4J-25" edge="1">
          <mxGeometry relative="1" as="geometry">
            <mxPoint x="712.5" y="395" as="sourcePoint" />
            <Array as="points">
              <mxPoint x="720.5" y="387" />
              <mxPoint x="680.5" y="450" />
              <mxPoint x="752.5" y="430" />
            </Array>
          </mxGeometry>
        </mxCell>
        <mxCell id="nSRVxIwpDMMca3vvs-4J-27" value="&lt;b&gt;Data Ingestion Artifacts&lt;/b&gt;" style="rounded=1;whiteSpace=wrap;html=1;strokeWidth=4;fillColor=#FFFFFF;strokeColor=#d6b656;shadow=0;glass=0;flipV=1;" parent="1" vertex="1">
          <mxGeometry x="91" y="377.9" width="172.44" height="34.1" as="geometry" />
        </mxCell>
        <mxCell id="nSRVxIwpDMMca3vvs-4J-28" value="zip_data_file_path" style="whiteSpace=wrap;html=1;rounded=1;arcSize=50;align=center;verticalAlign=middle;strokeWidth=1;autosize=1;spacing=4;treeFolding=1;treeMoving=1;newEdgeStyle={&quot;edgeStyle&quot;:&quot;entityRelationEdgeStyle&quot;,&quot;startArrow&quot;:&quot;none&quot;,&quot;endArrow&quot;:&quot;none&quot;,&quot;segment&quot;:10,&quot;curved&quot;:1,&quot;sourcePerimeterSpacing&quot;:0,&quot;targetPerimeterSpacing&quot;:0};strokeColor=none;" parent="1" vertex="1">
          <mxGeometry x="-59" y="368" width="109" height="30" as="geometry" />
        </mxCell>
        <mxCell id="nSRVxIwpDMMca3vvs-4J-29" value="" style="edgeStyle=entityRelationEdgeStyle;startArrow=none;endArrow=none;segment=10;curved=1;sourcePerimeterSpacing=0;targetPerimeterSpacing=0;rounded=0;exitX=0;exitY=0.5;exitDx=0;exitDy=0;strokeColor=#994C00;strokeWidth=2;" parent="1" source="nSRVxIwpDMMca3vvs-4J-27" target="nSRVxIwpDMMca3vvs-4J-28" edge="1">
          <mxGeometry relative="1" as="geometry">
            <mxPoint x="-9" y="500" as="sourcePoint" />
          </mxGeometry>
        </mxCell>
        <mxCell id="nSRVxIwpDMMca3vvs-4J-30" value="csv_data_file_path" style="whiteSpace=wrap;html=1;rounded=1;arcSize=50;align=center;verticalAlign=middle;strokeWidth=1;autosize=1;spacing=4;treeFolding=1;treeMoving=1;newEdgeStyle={&quot;edgeStyle&quot;:&quot;entityRelationEdgeStyle&quot;,&quot;startArrow&quot;:&quot;none&quot;,&quot;endArrow&quot;:&quot;none&quot;,&quot;segment&quot;:10,&quot;curved&quot;:1,&quot;sourcePerimeterSpacing&quot;:0,&quot;targetPerimeterSpacing&quot;:0};strokeColor=none;" parent="1" vertex="1">
          <mxGeometry x="-59" y="399" width="108" height="30" as="geometry" />
        </mxCell>
        <mxCell id="nSRVxIwpDMMca3vvs-4J-31" value="" style="edgeStyle=entityRelationEdgeStyle;startArrow=none;endArrow=none;segment=10;curved=1;sourcePerimeterSpacing=0;targetPerimeterSpacing=0;rounded=0;exitX=0;exitY=0.5;exitDx=0;exitDy=0;strokeColor=#990099;strokeWidth=2;" parent="1" source="nSRVxIwpDMMca3vvs-4J-27" target="nSRVxIwpDMMca3vvs-4J-30" edge="1">
          <mxGeometry relative="1" as="geometry">
            <mxPoint x="81" y="400" as="sourcePoint" />
          </mxGeometry>
        </mxCell>
        <mxCell id="nSRVxIwpDMMca3vvs-4J-32" value="" style="edgeStyle=segmentEdgeStyle;endArrow=classic;html=1;curved=0;rounded=0;endSize=8;startSize=8;exitX=0.5;exitY=1;exitDx=0;exitDy=0;strokeWidth=2;strokeColor=#CC0066;flowAnimation=1;" parent="1" edge="1">
          <mxGeometry width="50" height="50" relative="1" as="geometry">
            <mxPoint x="190.22000000000003" y="413.9999999999999" as="sourcePoint" />
            <mxPoint x="284" y="491" as="targetPoint" />
            <Array as="points">
              <mxPoint x="190" y="490" />
            </Array>
          </mxGeometry>
        </mxCell>
        <mxCell id="nSRVxIwpDMMca3vvs-4J-33" value="" style="edgeStyle=segmentEdgeStyle;endArrow=classic;html=1;curved=0;rounded=0;endSize=8;startSize=8;exitX=0.437;exitY=-0.012;exitDx=0;exitDy=0;exitPerimeter=0;strokeColor=#CC0066;strokeWidth=2;flowAnimation=1;" parent="1" edge="1">
          <mxGeometry width="50" height="50" relative="1" as="geometry">
            <mxPoint x="175.35627999999997" y="411.9992" as="sourcePoint" />
            <mxPoint x="49" y="489.59000000000003" as="targetPoint" />
            <Array as="points">
              <mxPoint x="175" y="490" />
            </Array>
          </mxGeometry>
        </mxCell>
        <mxCell id="nSRVxIwpDMMca3vvs-4J-34" value="" style="shape=image;html=1;verticalAlign=top;verticalLabelPosition=bottom;labelBackgroundColor=#ffffff;imageAspect=0;aspect=fixed;image=https://cdn3.iconfinder.com/data/icons/document-icons-2/30/647702-excel-128.png;rounded=1;" parent="1" vertex="1">
          <mxGeometry x="4" y="470" width="40" height="40" as="geometry" />
        </mxCell>
        <mxCell id="nSRVxIwpDMMca3vvs-4J-35" value="&lt;font style=&quot;font-size: 13px;&quot;&gt;&lt;b&gt;ner.csv&lt;/b&gt;&lt;/font&gt;" style="rounded=1;whiteSpace=wrap;html=1;strokeColor=none;" parent="1" vertex="1">
          <mxGeometry x="14" y="514" width="30" height="15" as="geometry" />
        </mxCell>
        <mxCell id="nSRVxIwpDMMca3vvs-4J-36" value="" style="edgeStyle=segmentEdgeStyle;endArrow=classic;html=1;curved=0;rounded=0;endSize=8;startSize=8;entryX=0;entryY=0.5;entryDx=0;entryDy=0;strokeWidth=2;flowAnimation=1;" parent="1" target="nSRVxIwpDMMca3vvs-4J-2" edge="1">
          <mxGeometry width="50" height="50" relative="1" as="geometry">
            <mxPoint x="20" y="540" as="sourcePoint" />
            <mxPoint x="113.80000000000001" y="586" as="targetPoint" />
            <Array as="points">
              <mxPoint x="20" y="585" />
            </Array>
          </mxGeometry>
        </mxCell>
        <mxCell id="nSRVxIwpDMMca3vvs-4J-37" value="&lt;b&gt;data_transformation_artifact&lt;/b&gt;" style="whiteSpace=wrap;html=1;fillColor=#FFFF99;strokeColor=#d6b656;rounded=1;" parent="1" vertex="1">
          <mxGeometry x="270" y="922" width="167.5" height="40" as="geometry" />
        </mxCell>
        <mxCell id="nSRVxIwpDMMca3vvs-4J-38" value="&lt;b&gt;df_val&lt;/b&gt;" style="whiteSpace=wrap;html=1;fillColor=#6666FF;strokeColor=#3700CC;fontColor=#ffffff;rounded=1;flipH=1;" parent="1" vertex="1">
          <mxGeometry x="370" y="670" width="120" height="30" as="geometry" />
        </mxCell>
        <mxCell id="nSRVxIwpDMMca3vvs-4J-39" value="&lt;b&gt;df_test&lt;/b&gt;" style="whiteSpace=wrap;html=1;fillColor=#6666FF;strokeColor=#3700CC;fontColor=#ffffff;rounded=1;flipH=1;" parent="1" vertex="1">
          <mxGeometry x="522" y="670" width="119.94" height="30" as="geometry" />
        </mxCell>
        <mxCell id="nSRVxIwpDMMca3vvs-4J-40" value="&lt;b&gt;unique_labels&lt;/b&gt;" style="whiteSpace=wrap;html=1;fillColor=#6666FF;strokeColor=#3700CC;fontColor=#ffffff;rounded=1;flipH=1;" parent="1" vertex="1">
          <mxGeometry x="670" y="670" width="119.94" height="30" as="geometry" />
        </mxCell>
        <mxCell id="nSRVxIwpDMMca3vvs-4J-41" value="&lt;b&gt;ids_to_labels&lt;/b&gt;" style="whiteSpace=wrap;html=1;fillColor=#6666FF;strokeColor=#3700CC;fontColor=#ffffff;rounded=1;flipH=1;" parent="1" vertex="1">
          <mxGeometry x="80" y="670" width="120" height="30" as="geometry" />
        </mxCell>
        <mxCell id="nSRVxIwpDMMca3vvs-4J-42" value="&lt;b&gt;labels_to_ids&lt;/b&gt;" style="whiteSpace=wrap;html=1;fillColor=#6666FF;strokeColor=#3700CC;fontColor=#ffffff;rounded=1;flipH=1;" parent="1" vertex="1">
          <mxGeometry x="-70" y="670" width="120" height="30" as="geometry" />
        </mxCell>
        <mxCell id="nSRVxIwpDMMca3vvs-4J-43" value="" style="shape=curlyBracket;whiteSpace=wrap;html=1;rounded=1;labelPosition=left;verticalLabelPosition=middle;align=right;verticalAlign=middle;rotation=90;strokeWidth=2;" parent="1" vertex="1">
          <mxGeometry x="325.44" y="262.19" width="63.63" height="747.5" as="geometry" />
        </mxCell>
        <mxCell id="nSRVxIwpDMMca3vvs-4J-44" value="" style="line;strokeWidth=2;direction=south;html=1;" parent="1" vertex="1">
          <mxGeometry x="135" y="637" width="9" height="33" as="geometry" />
        </mxCell>
        <mxCell id="nSRVxIwpDMMca3vvs-4J-45" value="" style="line;strokeWidth=2;direction=south;html=1;" parent="1" vertex="1">
          <mxGeometry x="280" y="636" width="9" height="33" as="geometry" />
        </mxCell>
        <mxCell id="nSRVxIwpDMMca3vvs-4J-46" value="" style="line;strokeWidth=2;direction=south;html=1;" parent="1" vertex="1">
          <mxGeometry x="428" y="636" width="9" height="33" as="geometry" />
        </mxCell>
        <mxCell id="nSRVxIwpDMMca3vvs-4J-47" value="" style="line;strokeWidth=2;direction=south;html=1;" parent="1" vertex="1">
          <mxGeometry x="584" y="637" width="9" height="33" as="geometry" />
        </mxCell>
        <mxCell id="nSRVxIwpDMMca3vvs-4J-48" value="" style="endArrow=classic;html=1;rounded=0;entryX=0.005;entryY=0.114;entryDx=0;entryDy=0;entryPerimeter=0;" parent="1" target="nSRVxIwpDMMca3vvs-4J-4" edge="1">
          <mxGeometry width="50" height="50" relative="1" as="geometry">
            <mxPoint x="-10" y="700" as="sourcePoint" />
            <mxPoint x="246.00000000000023" y="819" as="targetPoint" />
          </mxGeometry>
        </mxCell>
        <mxCell id="nSRVxIwpDMMca3vvs-4J-49" value="" style="endArrow=classic;html=1;rounded=0;entryX=1;entryY=0;entryDx=0;entryDy=0;exitX=0.5;exitY=1;exitDx=0;exitDy=0;" parent="1" source="nSRVxIwpDMMca3vvs-4J-40" target="nSRVxIwpDMMca3vvs-4J-4" edge="1">
          <mxGeometry width="50" height="50" relative="1" as="geometry">
            <mxPoint x="570" y="724" as="sourcePoint" />
            <mxPoint x="832.97" y="841" as="targetPoint" />
          </mxGeometry>
        </mxCell>
        <mxCell id="nSRVxIwpDMMca3vvs-4J-50" value="" style="endArrow=classic;html=1;rounded=0;entryX=0.005;entryY=0.114;entryDx=0;entryDy=0;exitX=0.5;exitY=1;exitDx=0;exitDy=0;entryPerimeter=0;" parent="1" source="nSRVxIwpDMMca3vvs-4J-41" edge="1">
          <mxGeometry width="50" height="50" relative="1" as="geometry">
            <mxPoint x="28.029999999999973" y="697" as="sourcePoint" />
            <mxPoint x="291" y="814" as="targetPoint" />
          </mxGeometry>
        </mxCell>
        <mxCell id="nSRVxIwpDMMca3vvs-4J-51" value="" style="endArrow=classic;html=1;rounded=0;exitX=0.5;exitY=1;exitDx=0;exitDy=0;exitPerimeter=0;" parent="1" source="nSRVxIwpDMMca3vvs-4J-39" edge="1">
          <mxGeometry width="50" height="50" relative="1" as="geometry">
            <mxPoint x="581.97" y="705" as="sourcePoint" />
            <mxPoint x="410" y="815" as="targetPoint" />
          </mxGeometry>
        </mxCell>
        <mxCell id="nSRVxIwpDMMca3vvs-4J-52" value="" style="endArrow=classic;html=1;rounded=0;entryX=0.005;entryY=0.114;entryDx=0;entryDy=0;exitX=0.5;exitY=1;exitDx=0;exitDy=0;entryPerimeter=0;" parent="1" source="nSRVxIwpDMMca3vvs-4J-3" edge="1">
          <mxGeometry width="50" height="50" relative="1" as="geometry">
            <mxPoint x="178" y="701" as="sourcePoint" />
            <mxPoint x="331" y="815" as="targetPoint" />
          </mxGeometry>
        </mxCell>
        <mxCell id="nSRVxIwpDMMca3vvs-4J-53" value="" style="endArrow=classic;html=1;rounded=0;entryX=0.005;entryY=0.114;entryDx=0;entryDy=0;exitX=0.5;exitY=1;exitDx=0;exitDy=0;entryPerimeter=0;" parent="1" source="nSRVxIwpDMMca3vvs-4J-38" edge="1">
          <mxGeometry width="50" height="50" relative="1" as="geometry">
            <mxPoint x="321" y="701" as="sourcePoint" />
            <mxPoint x="366" y="816" as="targetPoint" />
          </mxGeometry>
        </mxCell>
        <mxCell id="nSRVxIwpDMMca3vvs-4J-54" value="label_to_ids_path" style="whiteSpace=wrap;html=1;shape=partialRectangle;top=0;left=0;bottom=1;right=0;points=[[0,1],[1,1]];fillColor=none;align=center;verticalAlign=bottom;routingCenterY=0.5;snapToPoint=1;recursiveResize=0;autosize=1;treeFolding=1;treeMoving=1;newEdgeStyle={&quot;edgeStyle&quot;:&quot;entityRelationEdgeStyle&quot;,&quot;startArrow&quot;:&quot;none&quot;,&quot;endArrow&quot;:&quot;none&quot;,&quot;segment&quot;:10,&quot;curved&quot;:1,&quot;sourcePerimeterSpacing&quot;:0,&quot;targetPerimeterSpacing&quot;:0};strokeColor=none;" parent="1" vertex="1">
          <mxGeometry x="516.97" y="827" width="113.03" height="30" as="geometry" />
        </mxCell>
        <mxCell id="nSRVxIwpDMMca3vvs-4J-55" value="" style="edgeStyle=entityRelationEdgeStyle;startArrow=none;endArrow=none;segment=10;curved=1;sourcePerimeterSpacing=0;targetPerimeterSpacing=0;rounded=0;strokeWidth=2;strokeColor=#663300;" parent="1" target="nSRVxIwpDMMca3vvs-4J-54" edge="1">
          <mxGeometry relative="1" as="geometry">
            <mxPoint x="414" y="916" as="sourcePoint" />
            <Array as="points">
              <mxPoint x="396.5" y="896" />
            </Array>
          </mxGeometry>
        </mxCell>
        <mxCell id="nSRVxIwpDMMca3vvs-4J-56" value="ids_to_labels_path" style="whiteSpace=wrap;html=1;shape=partialRectangle;top=0;left=0;bottom=1;right=0;points=[[0,1],[1,1]];fillColor=none;align=center;verticalAlign=bottom;routingCenterY=0.5;snapToPoint=1;recursiveResize=0;autosize=1;treeFolding=1;treeMoving=1;newEdgeStyle={&quot;edgeStyle&quot;:&quot;entityRelationEdgeStyle&quot;,&quot;startArrow&quot;:&quot;none&quot;,&quot;endArrow&quot;:&quot;none&quot;,&quot;segment&quot;:10,&quot;curved&quot;:1,&quot;sourcePerimeterSpacing&quot;:0,&quot;targetPerimeterSpacing&quot;:0};strokeColor=none;" parent="1" vertex="1">
          <mxGeometry x="511.97" y="860" width="140" height="30" as="geometry" />
        </mxCell>
        <mxCell id="nSRVxIwpDMMca3vvs-4J-57" value="" style="edgeStyle=entityRelationEdgeStyle;startArrow=none;endArrow=none;segment=10;curved=1;sourcePerimeterSpacing=0;targetPerimeterSpacing=0;rounded=0;strokeWidth=2;strokeColor=#666600;" parent="1" edge="1">
          <mxGeometry relative="1" as="geometry">
            <mxPoint x="433.5" y="920" as="sourcePoint" />
            <mxPoint x="520" y="880" as="targetPoint" />
            <Array as="points">
              <mxPoint x="518" y="880" />
            </Array>
          </mxGeometry>
        </mxCell>
        <mxCell id="nSRVxIwpDMMca3vvs-4J-58" value="unique_labels_path" style="whiteSpace=wrap;html=1;shape=partialRectangle;top=0;left=0;bottom=1;right=0;points=[[0,1],[1,1]];fillColor=none;align=center;verticalAlign=bottom;routingCenterY=0.5;snapToPoint=1;recursiveResize=0;autosize=1;treeFolding=1;treeMoving=1;newEdgeStyle={&quot;edgeStyle&quot;:&quot;entityRelationEdgeStyle&quot;,&quot;startArrow&quot;:&quot;none&quot;,&quot;endArrow&quot;:&quot;none&quot;,&quot;segment&quot;:10,&quot;curved&quot;:1,&quot;sourcePerimeterSpacing&quot;:0,&quot;targetPerimeterSpacing&quot;:0};strokeColor=none;" parent="1" vertex="1">
          <mxGeometry x="511.97" y="1000" width="140" height="30" as="geometry" />
        </mxCell>
        <mxCell id="nSRVxIwpDMMca3vvs-4J-59" value="" style="edgeStyle=entityRelationEdgeStyle;startArrow=none;endArrow=none;segment=10;curved=1;sourcePerimeterSpacing=0;targetPerimeterSpacing=0;rounded=0;exitX=0.915;exitY=1.136;exitDx=0;exitDy=0;exitPerimeter=0;strokeWidth=2;strokeColor=#336600;" parent="1" target="nSRVxIwpDMMca3vvs-4J-58" edge="1">
          <mxGeometry relative="1" as="geometry">
            <mxPoint x="412.2624999999998" y="963.44" as="sourcePoint" />
          </mxGeometry>
        </mxCell>
        <mxCell id="nSRVxIwpDMMca3vvs-4J-60" value="" style="edgeStyle=orthogonalEdgeStyle;rounded=1;orthogonalLoop=1;jettySize=auto;html=1;flowAnimation=0;strokeColor=#CC0066;strokeWidth=2;exitX=0.5;exitY=1;exitDx=0;exitDy=0;" parent="1" source="nSRVxIwpDMMca3vvs-4J-4" edge="1">
          <mxGeometry relative="1" as="geometry">
            <mxPoint x="361" y="869" as="sourcePoint" />
            <Array as="points">
              <mxPoint x="361" y="851" />
            </Array>
            <mxPoint x="361" y="919" as="targetPoint" />
          </mxGeometry>
        </mxCell>
        <mxCell id="nSRVxIwpDMMca3vvs-4J-61" value="df_test_path" style="whiteSpace=wrap;html=1;shape=partialRectangle;top=0;left=0;bottom=1;right=0;points=[[0,1],[1,1]];fillColor=none;align=center;verticalAlign=bottom;routingCenterY=0.5;snapToPoint=1;recursiveResize=0;autosize=1;treeFolding=1;treeMoving=1;newEdgeStyle={&quot;edgeStyle&quot;:&quot;entityRelationEdgeStyle&quot;,&quot;startArrow&quot;:&quot;none&quot;,&quot;endArrow&quot;:&quot;none&quot;,&quot;segment&quot;:10,&quot;curved&quot;:1,&quot;sourcePerimeterSpacing&quot;:0,&quot;targetPerimeterSpacing&quot;:0};strokeColor=none;" parent="1" vertex="1">
          <mxGeometry x="526.97" y="965" width="73.03" height="30" as="geometry" />
        </mxCell>
        <mxCell id="nSRVxIwpDMMca3vvs-4J-62" value="" style="edgeStyle=entityRelationEdgeStyle;startArrow=none;endArrow=none;segment=10;curved=1;sourcePerimeterSpacing=0;targetPerimeterSpacing=0;rounded=0;exitX=1;exitY=0.75;exitDx=0;exitDy=0;strokeWidth=2;strokeColor=#EA6B66;" parent="1" source="nSRVxIwpDMMca3vvs-4J-37" target="nSRVxIwpDMMca3vvs-4J-61" edge="1">
          <mxGeometry relative="1" as="geometry">
            <mxPoint x="430" y="1022" as="sourcePoint" />
          </mxGeometry>
        </mxCell>
        <mxCell id="nSRVxIwpDMMca3vvs-4J-63" value="df_val_path" style="whiteSpace=wrap;html=1;shape=partialRectangle;top=0;left=0;bottom=1;right=0;points=[[0,1],[1,1]];fillColor=none;align=center;verticalAlign=bottom;routingCenterY=0.5;snapToPoint=1;recursiveResize=0;autosize=1;treeFolding=1;treeMoving=1;newEdgeStyle={&quot;edgeStyle&quot;:&quot;entityRelationEdgeStyle&quot;,&quot;startArrow&quot;:&quot;none&quot;,&quot;endArrow&quot;:&quot;none&quot;,&quot;segment&quot;:10,&quot;curved&quot;:1,&quot;sourcePerimeterSpacing&quot;:0,&quot;targetPerimeterSpacing&quot;:0};strokeColor=none;" parent="1" vertex="1">
          <mxGeometry x="531.97" y="930" width="58.03" height="30" as="geometry" />
        </mxCell>
        <mxCell id="nSRVxIwpDMMca3vvs-4J-64" value="" style="edgeStyle=entityRelationEdgeStyle;startArrow=none;endArrow=none;segment=10;curved=1;sourcePerimeterSpacing=0;targetPerimeterSpacing=0;rounded=0;exitX=1;exitY=0.75;exitDx=0;exitDy=0;strokeWidth=2;strokeColor=#330066;" parent="1" target="nSRVxIwpDMMca3vvs-4J-63" edge="1">
          <mxGeometry relative="1" as="geometry">
            <mxPoint x="437" y="935" as="sourcePoint" />
          </mxGeometry>
        </mxCell>
        <mxCell id="nSRVxIwpDMMca3vvs-4J-65" value="df_train_path" style="whiteSpace=wrap;html=1;shape=partialRectangle;top=0;left=0;bottom=1;right=0;points=[[0,1],[1,1]];fillColor=none;align=center;verticalAlign=bottom;routingCenterY=0.5;snapToPoint=1;recursiveResize=0;autosize=1;treeFolding=1;treeMoving=1;newEdgeStyle={&quot;edgeStyle&quot;:&quot;entityRelationEdgeStyle&quot;,&quot;startArrow&quot;:&quot;none&quot;,&quot;endArrow&quot;:&quot;none&quot;,&quot;segment&quot;:10,&quot;curved&quot;:1,&quot;sourcePerimeterSpacing&quot;:0,&quot;targetPerimeterSpacing&quot;:0};strokeColor=none;" parent="1" vertex="1">
          <mxGeometry x="526" y="895" width="84" height="30" as="geometry" />
        </mxCell>
        <mxCell id="nSRVxIwpDMMca3vvs-4J-66" value="" style="edgeStyle=entityRelationEdgeStyle;startArrow=none;endArrow=none;segment=10;curved=1;sourcePerimeterSpacing=0;targetPerimeterSpacing=0;rounded=0;exitX=1;exitY=0.25;exitDx=0;exitDy=0;entryX=-0.028;entryY=0.425;entryDx=0;entryDy=0;entryPerimeter=0;strokeWidth=2;strokeColor=#004C99;" parent="1" source="nSRVxIwpDMMca3vvs-4J-37" target="nSRVxIwpDMMca3vvs-4J-65" edge="1">
          <mxGeometry relative="1" as="geometry">
            <mxPoint x="445" y="886" as="sourcePoint" />
          </mxGeometry>
        </mxCell>
      </root>
    </mxGraphModel>
  </diagram>
  <diagram id="zWTGyQPwKh7ZWZAKlLzL" name="Page-3">
    <mxGraphModel dx="1434" dy="738" grid="1" gridSize="10" guides="1" tooltips="1" connect="1" arrows="1" fold="1" page="1" pageScale="1" pageWidth="1100" pageHeight="850" math="0" shadow="0">
      <root>
        <mxCell id="0" />
        <mxCell id="1" parent="0" />
      </root>
    </mxGraphModel>
  </diagram>
  <diagram name="Page-1" id="-PhoSljsTEhlxlB51h2y">
    <mxGraphModel dx="1434" dy="738" grid="1" gridSize="10" guides="1" tooltips="1" connect="1" arrows="1" fold="1" page="1" pageScale="1" pageWidth="827" pageHeight="1169" math="0" shadow="0">
      <root>
        <mxCell id="WIyWlLk6GJQsqaUBKTNV-0" />
        <mxCell id="WIyWlLk6GJQsqaUBKTNV-1" parent="WIyWlLk6GJQsqaUBKTNV-0" />
        <mxCell id="8eX8kVVmRZLDJjs02950-40" value="&lt;font style=&quot;font-size: 13px;&quot;&gt;&lt;b&gt;data_ingestion_dir&lt;/b&gt;&lt;/font&gt;" style="rounded=1;whiteSpace=wrap;html=1;strokeColor=none;" parent="WIyWlLk6GJQsqaUBKTNV-1" vertex="1">
          <mxGeometry x="330" y="60" width="120" height="30" as="geometry" />
        </mxCell>
        <mxCell id="8eX8kVVmRZLDJjs02950-41" value="" style="edgeStyle=orthogonalEdgeStyle;rounded=1;orthogonalLoop=1;jettySize=auto;html=1;flowAnimation=1;strokeColor=#FF0080;strokeWidth=2;" parent="WIyWlLk6GJQsqaUBKTNV-1" source="8eX8kVVmRZLDJjs02950-64" edge="1">
          <mxGeometry relative="1" as="geometry">
            <mxPoint x="571" y="205" as="targetPoint" />
            <Array as="points">
              <mxPoint x="571.44" y="180" />
              <mxPoint x="571.44" y="180" />
            </Array>
          </mxGeometry>
        </mxCell>
        <mxCell id="8eX8kVVmRZLDJjs02950-42" value="&lt;font style=&quot;font-size: 13px;&quot;&gt;&lt;b&gt;feature_store_file_path&lt;/b&gt;&lt;/font&gt;" style="rounded=1;whiteSpace=wrap;html=1;strokeColor=none;" parent="WIyWlLk6GJQsqaUBKTNV-1" vertex="1">
          <mxGeometry x="318" y="96" width="131" height="30" as="geometry" />
        </mxCell>
        <mxCell id="8eX8kVVmRZLDJjs02950-43" value="&lt;div style=&quot;text-align: right;&quot;&gt;&lt;span style=&quot;background-color: initial; font-size: 13px;&quot;&gt;&lt;b&gt;s3_data_name&lt;/b&gt;&lt;/span&gt;&lt;/div&gt;" style="rounded=1;whiteSpace=wrap;html=1;strokeColor=none;" parent="WIyWlLk6GJQsqaUBKTNV-1" vertex="1">
          <mxGeometry x="360" y="149" width="101" height="30" as="geometry" />
        </mxCell>
        <mxCell id="8eX8kVVmRZLDJjs02950-44" value="&lt;font style=&quot;font-size: 13px;&quot;&gt;&lt;b&gt;s3_data_bucket_name&lt;/b&gt;&lt;/font&gt;" style="rounded=1;whiteSpace=wrap;html=1;strokeColor=none;" parent="WIyWlLk6GJQsqaUBKTNV-1" vertex="1">
          <mxGeometry x="310" y="189" width="151" height="30" as="geometry" />
        </mxCell>
        <mxCell id="8eX8kVVmRZLDJjs02950-45" value="" style="edgeStyle=orthogonalEdgeStyle;rounded=1;orthogonalLoop=1;jettySize=auto;html=1;flowAnimation=1;strokeColor=#FF0080;strokeWidth=2;" parent="WIyWlLk6GJQsqaUBKTNV-1" edge="1">
          <mxGeometry relative="1" as="geometry">
            <mxPoint x="572.5" y="245" as="sourcePoint" />
            <mxPoint x="572.5" y="295" as="targetPoint" />
          </mxGeometry>
        </mxCell>
        <mxCell id="8eX8kVVmRZLDJjs02950-46" value="&lt;b&gt;initiate_data_ingestion&lt;/b&gt;" style="rounded=1;whiteSpace=wrap;html=1;fillColor=#6666FF;fontColor=#ffffff;strokeColor=#3700CC;flipH=1;container=1;" parent="WIyWlLk6GJQsqaUBKTNV-1" vertex="1">
          <mxGeometry x="511" y="209" width="132.44" height="31" as="geometry" />
        </mxCell>
        <mxCell id="8eX8kVVmRZLDJjs02950-48" value="&lt;b&gt;download_s3_data&lt;/b&gt;" style="whiteSpace=wrap;html=1;fillColor=#6666FF;strokeColor=#3700CC;fontColor=#ffffff;rounded=1;" parent="WIyWlLk6GJQsqaUBKTNV-1" vertex="1">
          <mxGeometry x="510" y="295" width="123.44" height="30" as="geometry" />
        </mxCell>
        <mxCell id="8eX8kVVmRZLDJjs02950-49" value="" style="edgeStyle=orthogonalEdgeStyle;rounded=1;orthogonalLoop=1;jettySize=auto;html=1;flowAnimation=1;strokeColor=#FF0080;strokeWidth=2;exitX=0.5;exitY=1;exitDx=0;exitDy=0;" parent="WIyWlLk6GJQsqaUBKTNV-1" source="8eX8kVVmRZLDJjs02950-50" target="8eX8kVVmRZLDJjs02950-57" edge="1">
          <mxGeometry relative="1" as="geometry">
            <Array as="points">
              <mxPoint x="573" y="513" />
            </Array>
            <mxPoint x="573" y="550" as="sourcePoint" />
          </mxGeometry>
        </mxCell>
        <mxCell id="8eX8kVVmRZLDJjs02950-52" value="&lt;font style=&quot;font-size: 13px;&quot;&gt;&lt;b&gt;AWS s3 bucket&lt;/b&gt;&lt;/font&gt;" style="rounded=1;whiteSpace=wrap;html=1;strokeColor=none;" parent="WIyWlLk6GJQsqaUBKTNV-1" vertex="1">
          <mxGeometry x="710.78" y="179" width="120" height="30" as="geometry" />
        </mxCell>
        <mxCell id="8eX8kVVmRZLDJjs02950-53" value="" style="edgeStyle=segmentEdgeStyle;endArrow=classic;html=1;curved=0;rounded=1;endSize=8;startSize=8;flowAnimation=1;strokeWidth=2;strokeColor=#FF0080;" parent="WIyWlLk6GJQsqaUBKTNV-1" edge="1">
          <mxGeometry width="50" height="50" relative="1" as="geometry">
            <mxPoint x="775.44" y="209" as="sourcePoint" />
            <mxPoint x="635.44" y="311" as="targetPoint" />
            <Array as="points">
              <mxPoint x="775.44" y="311" />
              <mxPoint x="635.44" y="311" />
            </Array>
          </mxGeometry>
        </mxCell>
        <mxCell id="8eX8kVVmRZLDJjs02950-54" value="" style="shape=image;html=1;verticalAlign=top;verticalLabelPosition=bottom;labelBackgroundColor=#ffffff;imageAspect=0;aspect=fixed;image=https://cdn4.iconfinder.com/data/icons/file-extension-names-vol-8/512/2-128.png;rounded=1;" parent="WIyWlLk6GJQsqaUBKTNV-1" vertex="1">
          <mxGeometry x="334" y="381" width="50" height="50" as="geometry" />
        </mxCell>
        <mxCell id="8eX8kVVmRZLDJjs02950-55" value="" style="edgeStyle=orthogonalEdgeStyle;rounded=0;orthogonalLoop=1;jettySize=auto;html=1;flowAnimation=1;strokeColor=#006600;strokeWidth=2;" parent="WIyWlLk6GJQsqaUBKTNV-1" edge="1">
          <mxGeometry relative="1" as="geometry">
            <mxPoint x="357" y="470" as="sourcePoint" />
            <mxPoint x="356.9694117647059" y="627.9999999999998" as="targetPoint" />
          </mxGeometry>
        </mxCell>
        <mxCell id="8eX8kVVmRZLDJjs02950-56" value="&lt;span style=&quot;font-size: 13px;&quot;&gt;&lt;b&gt;isd_data_mini.zip&lt;/b&gt;&lt;/span&gt;" style="rounded=1;whiteSpace=wrap;html=1;strokeColor=none;" parent="WIyWlLk6GJQsqaUBKTNV-1" vertex="1">
          <mxGeometry x="299" y="431" width="120" height="30" as="geometry" />
        </mxCell>
        <mxCell id="8eX8kVVmRZLDJjs02950-57" value="&lt;b&gt;data_ingestion_artifact&lt;/b&gt;" style="whiteSpace=wrap;html=1;fillColor=#FFFF99;strokeColor=#d6b656;rounded=1;" parent="WIyWlLk6GJQsqaUBKTNV-1" vertex="1">
          <mxGeometry x="511.72" y="660" width="139.94" height="40" as="geometry" />
        </mxCell>
        <mxCell id="8eX8kVVmRZLDJjs02950-58" value="&lt;span style=&quot;font-size: 13px;&quot;&gt;&lt;b&gt;data_zip_file_path&lt;/b&gt;&lt;/span&gt;" style="rounded=1;whiteSpace=wrap;html=1;strokeColor=none;" parent="WIyWlLk6GJQsqaUBKTNV-1" vertex="1">
          <mxGeometry x="333" y="628" width="108.75" height="30" as="geometry" />
        </mxCell>
        <mxCell id="8eX8kVVmRZLDJjs02950-59" value="&lt;span style=&quot;font-size: 13px;&quot;&gt;&lt;b&gt;feature_store_path&lt;/b&gt;&lt;/span&gt;" style="rounded=1;whiteSpace=wrap;html=1;strokeColor=none;" parent="WIyWlLk6GJQsqaUBKTNV-1" vertex="1">
          <mxGeometry x="333" y="686" width="111.44" height="30" as="geometry" />
        </mxCell>
        <mxCell id="8eX8kVVmRZLDJjs02950-62" value="" style="edgeStyle=elbowEdgeStyle;elbow=vertical;endArrow=classic;html=1;curved=0;rounded=1;endSize=8;startSize=8;flowAnimation=1;strokeColor=#006600;strokeWidth=2;entryX=0.25;entryY=1;entryDx=0;entryDy=0;" parent="WIyWlLk6GJQsqaUBKTNV-1" target="8eX8kVVmRZLDJjs02950-59" edge="1">
          <mxGeometry width="50" height="50" relative="1" as="geometry">
            <mxPoint x="830" y="355.65" as="sourcePoint" />
            <mxPoint x="384" y="713.65" as="targetPoint" />
            <Array as="points">
              <mxPoint x="590" y="740" />
            </Array>
          </mxGeometry>
        </mxCell>
        <mxCell id="8eX8kVVmRZLDJjs02950-63" value="&lt;font size=&quot;1&quot; color=&quot;#ff0000&quot; style=&quot;&quot;&gt;&lt;b style=&quot;font-size: 18px;&quot;&gt;ISD_Data_Ingestion_Workflow&lt;/b&gt;&lt;/font&gt;" style="rounded=1;whiteSpace=wrap;html=1;strokeColor=none;" parent="WIyWlLk6GJQsqaUBKTNV-1" vertex="1">
          <mxGeometry x="480.00000000000006" y="30" width="290" height="30" as="geometry" />
        </mxCell>
        <mxCell id="8eX8kVVmRZLDJjs02950-64" value="&lt;b&gt;data_ingestion_config&lt;/b&gt;" style="rounded=1;whiteSpace=wrap;html=1;strokeWidth=1;fillColor=#FFFF99;strokeColor=#d6b656;shadow=0;glass=0;flipV=1;" parent="WIyWlLk6GJQsqaUBKTNV-1" vertex="1">
          <mxGeometry x="511" y="115.89999999999998" width="132.44" height="34.1" as="geometry" />
        </mxCell>
        <mxCell id="8eX8kVVmRZLDJjs02950-65" value="" style="endArrow=classic;html=1;rounded=0;flowAnimation=1;strokeColor=#006600;strokeWidth=2;" parent="WIyWlLk6GJQsqaUBKTNV-1" edge="1">
          <mxGeometry width="50" height="50" relative="1" as="geometry">
            <mxPoint x="563.44" y="410" as="sourcePoint" />
            <mxPoint x="413.44000000000005" y="410" as="targetPoint" />
          </mxGeometry>
        </mxCell>
        <mxCell id="8eX8kVVmRZLDJjs02950-67" value="" style="edgeStyle=orthogonalEdgeStyle;rounded=1;orthogonalLoop=1;jettySize=auto;html=1;flowAnimation=1;strokeColor=#FF0080;strokeWidth=2;exitX=0.438;exitY=1.05;exitDx=0;exitDy=0;exitPerimeter=0;" parent="WIyWlLk6GJQsqaUBKTNV-1" source="8eX8kVVmRZLDJjs02950-57" target="8eX8kVVmRZLDJjs02950-68" edge="1">
          <mxGeometry relative="1" as="geometry">
            <mxPoint x="574" y="710" as="sourcePoint" />
            <Array as="points">
              <mxPoint x="574" y="702" />
            </Array>
          </mxGeometry>
        </mxCell>
        <mxCell id="8eX8kVVmRZLDJjs02950-68" value="&lt;b&gt;To be continue to data_validation component&lt;/b&gt;" style="whiteSpace=wrap;html=1;fillColor=#f8cecc;strokeColor=#b85450;rounded=1;" parent="WIyWlLk6GJQsqaUBKTNV-1" vertex="1">
          <mxGeometry x="530" y="767" width="110" height="60" as="geometry" />
        </mxCell>
        <mxCell id="8eX8kVVmRZLDJjs02950-69" value="" style="edgeStyle=entityRelationEdgeStyle;startArrow=none;endArrow=none;segment=10;curved=1;sourcePerimeterSpacing=0;targetPerimeterSpacing=0;rounded=0;strokeColor=#994C00;strokeWidth=2;" parent="WIyWlLk6GJQsqaUBKTNV-1" edge="1">
          <mxGeometry relative="1" as="geometry">
            <mxPoint x="460" y="75" as="sourcePoint" />
            <mxPoint x="543" y="117" as="targetPoint" />
            <Array as="points">
              <mxPoint x="623" y="217" />
              <mxPoint x="493" y="72" />
              <mxPoint x="633" y="217" />
              <mxPoint x="633" y="207" />
            </Array>
          </mxGeometry>
        </mxCell>
        <mxCell id="8eX8kVVmRZLDJjs02950-70" value="" style="edgeStyle=entityRelationEdgeStyle;startArrow=none;endArrow=none;segment=10;curved=1;sourcePerimeterSpacing=0;targetPerimeterSpacing=0;rounded=0;exitX=0.25;exitY=1;exitDx=0;exitDy=0;strokeColor=#990099;strokeWidth=2;" parent="WIyWlLk6GJQsqaUBKTNV-1" source="8eX8kVVmRZLDJjs02950-64" target="8eX8kVVmRZLDJjs02950-44" edge="1">
          <mxGeometry relative="1" as="geometry">
            <mxPoint x="532" y="182" as="sourcePoint" />
            <mxPoint x="490" y="201" as="targetPoint" />
            <Array as="points">
              <mxPoint x="681" y="447" />
            </Array>
          </mxGeometry>
        </mxCell>
        <mxCell id="8eX8kVVmRZLDJjs02950-71" value="" style="edgeStyle=entityRelationEdgeStyle;startArrow=none;endArrow=none;segment=10;curved=1;sourcePerimeterSpacing=0;targetPerimeterSpacing=0;rounded=0;strokeColor=#009999;strokeWidth=2;" parent="WIyWlLk6GJQsqaUBKTNV-1" edge="1">
          <mxGeometry relative="1" as="geometry">
            <mxPoint x="460" y="110" as="sourcePoint" />
            <mxPoint x="511" y="132" as="targetPoint" />
            <Array as="points">
              <mxPoint x="591" y="232" />
              <mxPoint x="461" y="87" />
              <mxPoint x="601" y="232" />
              <mxPoint x="601" y="222" />
            </Array>
          </mxGeometry>
        </mxCell>
        <mxCell id="8eX8kVVmRZLDJjs02950-72" value="" style="edgeStyle=entityRelationEdgeStyle;startArrow=none;endArrow=none;segment=10;curved=1;sourcePerimeterSpacing=0;targetPerimeterSpacing=0;rounded=0;strokeColor=#006600;strokeWidth=2;exitX=1;exitY=0.5;exitDx=0;exitDy=0;entryX=0;entryY=0.75;entryDx=0;entryDy=0;" parent="WIyWlLk6GJQsqaUBKTNV-1" source="8eX8kVVmRZLDJjs02950-43" target="8eX8kVVmRZLDJjs02950-64" edge="1">
          <mxGeometry relative="1" as="geometry">
            <mxPoint x="470" y="120" as="sourcePoint" />
            <mxPoint x="521" y="142" as="targetPoint" />
            <Array as="points">
              <mxPoint x="601" y="242" />
              <mxPoint x="471" y="97" />
              <mxPoint x="611" y="242" />
              <mxPoint x="611" y="232" />
            </Array>
          </mxGeometry>
        </mxCell>
        <mxCell id="8eX8kVVmRZLDJjs02950-73" value="" style="edgeStyle=entityRelationEdgeStyle;startArrow=none;endArrow=none;segment=10;curved=1;sourcePerimeterSpacing=0;targetPerimeterSpacing=0;rounded=0;strokeColor=#990099;strokeWidth=2;" parent="WIyWlLk6GJQsqaUBKTNV-1" edge="1">
          <mxGeometry relative="1" as="geometry">
            <mxPoint x="450" y="645" as="sourcePoint" />
            <mxPoint x="514.5" y="676" as="targetPoint" />
            <Array as="points">
              <mxPoint x="460" y="645" />
              <mxPoint x="460" y="645" />
              <mxPoint x="480" y="655" />
              <mxPoint x="490" y="655" />
              <mxPoint x="453.5" y="994" />
              <mxPoint x="594.5" y="776" />
              <mxPoint x="483.5" y="914" />
              <mxPoint x="464.5" y="631" />
              <mxPoint x="604.5" y="776" />
              <mxPoint x="604.5" y="766" />
            </Array>
          </mxGeometry>
        </mxCell>
        <mxCell id="8eX8kVVmRZLDJjs02950-74" value="" style="edgeStyle=entityRelationEdgeStyle;startArrow=none;endArrow=none;segment=10;curved=1;sourcePerimeterSpacing=0;targetPerimeterSpacing=0;rounded=0;strokeColor=#006600;strokeWidth=2;entryX=0;entryY=0.5;entryDx=0;entryDy=0;" parent="WIyWlLk6GJQsqaUBKTNV-1" target="8eX8kVVmRZLDJjs02950-57" edge="1">
          <mxGeometry relative="1" as="geometry">
            <mxPoint x="451" y="703" as="sourcePoint" />
            <mxPoint x="510" y="675" as="targetPoint" />
            <Array as="points">
              <mxPoint x="460" y="695" />
              <mxPoint x="460" y="715" />
              <mxPoint x="460" y="715" />
              <mxPoint x="510" y="675" />
              <mxPoint x="450" y="715" />
              <mxPoint x="603.5" y="786" />
              <mxPoint x="452.5" y="864" />
              <mxPoint x="463.5" y="974" />
              <mxPoint x="473.5" y="641" />
              <mxPoint x="613.5" y="786" />
              <mxPoint x="613.5" y="776" />
            </Array>
          </mxGeometry>
        </mxCell>
        <mxCell id="8eX8kVVmRZLDJjs02950-79" value="" style="sketch=0;points=[[0,0,0],[0.25,0,0],[0.5,0,0],[0.75,0,0],[1,0,0],[0,1,0],[0.25,1,0],[0.5,1,0],[0.75,1,0],[1,1,0],[0,0.25,0],[0,0.5,0],[0,0.75,0],[1,0.25,0],[1,0.5,0],[1,0.75,0]];outlineConnect=0;fontColor=#232F3E;fillColor=#7AA116;strokeColor=#ffffff;dashed=0;verticalLabelPosition=bottom;verticalAlign=top;align=center;html=1;fontSize=12;fontStyle=0;aspect=fixed;shape=mxgraph.aws4.resourceIcon;resIcon=mxgraph.aws4.s3;" parent="WIyWlLk6GJQsqaUBKTNV-1" vertex="1">
          <mxGeometry x="743.44" y="110" width="60" height="60" as="geometry" />
        </mxCell>
        <mxCell id="8eX8kVVmRZLDJjs02950-84" value="&lt;b&gt;get data from s3 bucket&lt;/b&gt;" style="text;strokeColor=none;align=center;fillColor=none;html=1;verticalAlign=middle;whiteSpace=wrap;rounded=0;" parent="WIyWlLk6GJQsqaUBKTNV-1" vertex="1">
          <mxGeometry x="691" y="248" width="160" height="30" as="geometry" />
        </mxCell>
        <mxCell id="8g1nXVOz-ZgUr4x5GwGk-0" value="" style="edgeStyle=orthogonalEdgeStyle;rounded=1;orthogonalLoop=1;jettySize=auto;html=1;flowAnimation=1;strokeColor=#FF0080;strokeWidth=2;exitX=0.5;exitY=1;exitDx=0;exitDy=0;" parent="WIyWlLk6GJQsqaUBKTNV-1" source="8eX8kVVmRZLDJjs02950-48" target="8eX8kVVmRZLDJjs02950-50" edge="1">
          <mxGeometry relative="1" as="geometry">
            <mxPoint x="572" y="325" as="sourcePoint" />
            <mxPoint x="571.5" y="440" as="targetPoint" />
          </mxGeometry>
        </mxCell>
        <mxCell id="8eX8kVVmRZLDJjs02950-50" value="&lt;b&gt;extract_zip_file&lt;/b&gt;" style="whiteSpace=wrap;html=1;fillColor=#6666FF;strokeColor=#3700CC;fontColor=#ffffff;rounded=1;" parent="WIyWlLk6GJQsqaUBKTNV-1" vertex="1">
          <mxGeometry x="511.72" y="472.31" width="120" height="35" as="geometry" />
        </mxCell>
        <mxCell id="3qkXrNH8dcLmyiTHp_if-0" value="" style="shape=curlyBracket;whiteSpace=wrap;html=1;rounded=1;labelPosition=left;verticalLabelPosition=middle;align=right;verticalAlign=middle;rotation=0;strokeWidth=2;" parent="WIyWlLk6GJQsqaUBKTNV-1" vertex="1">
          <mxGeometry x="631.44" y="360" width="63.63" height="260" as="geometry" />
        </mxCell>
        <mxCell id="lY8e4gBOJ8Q8jzytJCp8-0" value="" style="line;strokeWidth=2;direction=south;html=1;rotation=-90;" parent="WIyWlLk6GJQsqaUBKTNV-1" vertex="1">
          <mxGeometry x="676" y="407" width="9" height="33" as="geometry" />
        </mxCell>
        <mxCell id="lY8e4gBOJ8Q8jzytJCp8-2" value="" style="line;strokeWidth=2;direction=south;html=1;rotation=-90;" parent="WIyWlLk6GJQsqaUBKTNV-1" vertex="1">
          <mxGeometry x="670" y="474.31" width="9" height="33" as="geometry" />
        </mxCell>
        <mxCell id="lY8e4gBOJ8Q8jzytJCp8-3" value="" style="line;strokeWidth=2;direction=south;html=1;rotation=-90;" parent="WIyWlLk6GJQsqaUBKTNV-1" vertex="1">
          <mxGeometry x="676" y="536.31" width="9" height="33" as="geometry" />
        </mxCell>
        <mxCell id="lY8e4gBOJ8Q8jzytJCp8-5" value="" style="sketch=0;pointerEvents=1;shadow=0;dashed=0;html=1;strokeColor=none;labelPosition=center;verticalLabelPosition=bottom;verticalAlign=top;outlineConnect=0;align=center;shape=mxgraph.office.concepts.folder;fillColor=#DA4026;" parent="WIyWlLk6GJQsqaUBKTNV-1" vertex="1">
          <mxGeometry x="703.61" y="390" width="35.39" height="40" as="geometry" />
        </mxCell>
        <mxCell id="lY8e4gBOJ8Q8jzytJCp8-6" value="&lt;span style=&quot;font-size: 13px;&quot;&gt;&lt;b&gt;images&lt;/b&gt;&lt;/span&gt;" style="rounded=1;whiteSpace=wrap;html=1;strokeColor=none;" parent="WIyWlLk6GJQsqaUBKTNV-1" vertex="1">
          <mxGeometry x="704.61" y="373.31" width="40" height="16.69" as="geometry" />
        </mxCell>
        <mxCell id="lY8e4gBOJ8Q8jzytJCp8-7" value="" style="sketch=0;pointerEvents=1;shadow=0;dashed=0;html=1;strokeColor=none;labelPosition=center;verticalLabelPosition=bottom;verticalAlign=top;outlineConnect=0;align=center;shape=mxgraph.office.concepts.folder;fillColor=#7FBA42;" parent="WIyWlLk6GJQsqaUBKTNV-1" vertex="1">
          <mxGeometry x="699.61" y="330" width="40.39" height="40" as="geometry" />
        </mxCell>
        <mxCell id="lY8e4gBOJ8Q8jzytJCp8-8" value="&lt;span style=&quot;font-size: 13px;&quot;&gt;&lt;b&gt;labels&lt;/b&gt;&lt;/span&gt;" style="rounded=1;whiteSpace=wrap;html=1;strokeColor=none;" parent="WIyWlLk6GJQsqaUBKTNV-1" vertex="1">
          <mxGeometry x="701.78" y="431.62" width="40" height="16.69" as="geometry" />
        </mxCell>
        <mxCell id="lY8e4gBOJ8Q8jzytJCp8-11" value="" style="sketch=0;aspect=fixed;pointerEvents=1;shadow=0;dashed=0;html=1;strokeColor=none;labelPosition=center;verticalLabelPosition=bottom;verticalAlign=top;align=center;fillColor=#00188D;shape=mxgraph.azure.file" parent="WIyWlLk6GJQsqaUBKTNV-1" vertex="1">
          <mxGeometry x="705.78" y="463.31" width="34.49" height="36.69" as="geometry" />
        </mxCell>
        <mxCell id="lY8e4gBOJ8Q8jzytJCp8-12" value="&lt;span style=&quot;font-size: 13px;&quot;&gt;&lt;b&gt;train.txt&lt;/b&gt;&lt;/span&gt;" style="rounded=1;whiteSpace=wrap;html=1;strokeColor=none;" parent="WIyWlLk6GJQsqaUBKTNV-1" vertex="1">
          <mxGeometry x="703.78" y="500.62" width="40" height="16.69" as="geometry" />
        </mxCell>
        <mxCell id="lY8e4gBOJ8Q8jzytJCp8-13" value="" style="sketch=0;aspect=fixed;pointerEvents=1;shadow=0;dashed=0;html=1;strokeColor=none;labelPosition=center;verticalLabelPosition=bottom;verticalAlign=top;align=center;fillColor=#00188D;shape=mxgraph.azure.file" parent="WIyWlLk6GJQsqaUBKTNV-1" vertex="1">
          <mxGeometry x="706.02" y="531.31" width="34.49" height="36.69" as="geometry" />
        </mxCell>
        <mxCell id="lY8e4gBOJ8Q8jzytJCp8-14" value="&lt;span style=&quot;font-size: 13px;&quot;&gt;&lt;b&gt;val.txt&lt;/b&gt;&lt;/span&gt;" style="rounded=1;whiteSpace=wrap;html=1;strokeColor=none;" parent="WIyWlLk6GJQsqaUBKTNV-1" vertex="1">
          <mxGeometry x="704.02" y="567.62" width="40" height="16.69" as="geometry" />
        </mxCell>
        <mxCell id="lY8e4gBOJ8Q8jzytJCp8-15" value="" style="image;aspect=fixed;html=1;points=[];align=center;fontSize=12;image=img/lib/azure2/general/File.svg;" parent="WIyWlLk6GJQsqaUBKTNV-1" vertex="1">
          <mxGeometry x="706.02" y="591.5" width="39.36" height="48.5" as="geometry" />
        </mxCell>
        <mxCell id="lY8e4gBOJ8Q8jzytJCp8-16" value="&lt;span style=&quot;font-size: 13px;&quot;&gt;&lt;b&gt;classes.names&lt;/b&gt;&lt;/span&gt;" style="rounded=1;whiteSpace=wrap;html=1;strokeColor=none;" parent="WIyWlLk6GJQsqaUBKTNV-1" vertex="1">
          <mxGeometry x="705.38" y="641" width="40" height="16.69" as="geometry" />
        </mxCell>
        <mxCell id="lY8e4gBOJ8Q8jzytJCp8-18" value="" style="endArrow=none;html=1;rounded=0;strokeColor=#006600;strokeWidth=2;flowAnimation=1;" parent="WIyWlLk6GJQsqaUBKTNV-1" edge="1">
          <mxGeometry width="50" height="50" relative="1" as="geometry">
            <mxPoint x="750" y="360" as="sourcePoint" />
            <mxPoint x="830" y="360" as="targetPoint" />
          </mxGeometry>
        </mxCell>
        <mxCell id="lY8e4gBOJ8Q8jzytJCp8-19" value="" style="endArrow=none;html=1;rounded=0;strokeColor=#006600;strokeWidth=2;flowAnimation=1;" parent="WIyWlLk6GJQsqaUBKTNV-1" edge="1">
          <mxGeometry width="50" height="50" relative="1" as="geometry">
            <mxPoint x="752" y="419" as="sourcePoint" />
            <mxPoint x="832" y="419" as="targetPoint" />
          </mxGeometry>
        </mxCell>
        <mxCell id="lY8e4gBOJ8Q8jzytJCp8-20" value="" style="endArrow=none;html=1;rounded=0;strokeColor=#006600;strokeWidth=2;flowAnimation=1;" parent="WIyWlLk6GJQsqaUBKTNV-1" edge="1">
          <mxGeometry width="50" height="50" relative="1" as="geometry">
            <mxPoint x="752" y="484" as="sourcePoint" />
            <mxPoint x="832" y="484" as="targetPoint" />
          </mxGeometry>
        </mxCell>
        <mxCell id="lY8e4gBOJ8Q8jzytJCp8-21" value="" style="endArrow=none;html=1;rounded=0;strokeColor=#006600;strokeWidth=2;flowAnimation=1;" parent="WIyWlLk6GJQsqaUBKTNV-1" edge="1">
          <mxGeometry width="50" height="50" relative="1" as="geometry">
            <mxPoint x="751" y="561" as="sourcePoint" />
            <mxPoint x="831" y="561" as="targetPoint" />
          </mxGeometry>
        </mxCell>
        <mxCell id="lY8e4gBOJ8Q8jzytJCp8-22" value="" style="endArrow=none;html=1;rounded=0;strokeColor=#006600;strokeWidth=2;flowAnimation=1;" parent="WIyWlLk6GJQsqaUBKTNV-1" edge="1">
          <mxGeometry width="50" height="50" relative="1" as="geometry">
            <mxPoint x="752" y="625" as="sourcePoint" />
            <mxPoint x="832" y="625" as="targetPoint" />
          </mxGeometry>
        </mxCell>
      </root>
    </mxGraphModel>
  </diagram>
  <diagram name="Page-2" id="TWdSixz7cgm3suDHuCO_">
    <mxGraphModel dx="2534" dy="738" grid="1" gridSize="10" guides="1" tooltips="1" connect="1" arrows="1" fold="1" page="1" pageScale="1" pageWidth="1100" pageHeight="850" math="0" shadow="0">
      <root>
        <mxCell id="0" />
        <mxCell id="1" parent="0" />
        <mxCell id="nSRVxIwpDMMca3vvs-4J-1" value="" style="edgeStyle=orthogonalEdgeStyle;rounded=1;orthogonalLoop=1;jettySize=auto;html=1;flowAnimation=1;strokeColor=#FF0080;strokeWidth=2;" edge="1" parent="1" source="nSRVxIwpDMMca3vvs-4J-6">
          <mxGeometry relative="1" as="geometry">
            <mxPoint x="357.56" y="565" as="targetPoint" />
            <Array as="points">
              <mxPoint x="358" y="540" />
              <mxPoint x="358" y="540" />
            </Array>
          </mxGeometry>
        </mxCell>
        <mxCell id="nSRVxIwpDMMca3vvs-4J-2" value="&lt;b&gt;splitting_data&lt;/b&gt;" style="rounded=1;whiteSpace=wrap;html=1;fillColor=#6666FF;fontColor=#ffffff;strokeColor=#3700CC;flipH=1;container=1;" vertex="1" parent="1">
          <mxGeometry x="297.56" y="569" width="132.44" height="31" as="geometry" />
        </mxCell>
        <mxCell id="nSRVxIwpDMMca3vvs-4J-3" value="&lt;b&gt;df_train&lt;/b&gt;" style="whiteSpace=wrap;html=1;fillColor=#6666FF;strokeColor=#3700CC;fontColor=#ffffff;rounded=1;flipH=1;" vertex="1" parent="1">
          <mxGeometry x="220" y="670" width="120" height="30" as="geometry" />
        </mxCell>
        <mxCell id="nSRVxIwpDMMca3vvs-4J-4" value="&lt;b&gt;prepare data transformatoin artifacts&lt;/b&gt;" style="whiteSpace=wrap;html=1;fillColor=#6666FF;strokeColor=#3700CC;fontColor=#ffffff;rounded=1;" vertex="1" parent="1">
          <mxGeometry x="249" y="816" width="220" height="35" as="geometry" />
        </mxCell>
        <mxCell id="nSRVxIwpDMMca3vvs-4J-5" value="&lt;font size=&quot;1&quot; color=&quot;#ff0000&quot; style=&quot;&quot;&gt;&lt;b style=&quot;font-size: 18px;&quot;&gt;NER_Data_Transformation_Workflow&lt;/b&gt;&lt;/font&gt;" style="rounded=1;whiteSpace=wrap;html=1;strokeColor=none;" vertex="1" parent="1">
          <mxGeometry x="240" y="280" width="290" height="30" as="geometry" />
        </mxCell>
        <mxCell id="nSRVxIwpDMMca3vvs-4J-6" value="&lt;b&gt;data_transformation_config&lt;/b&gt;" style="rounded=1;whiteSpace=wrap;html=1;strokeWidth=1;fillColor=#FFFF99;strokeColor=#d6b656;shadow=0;glass=0;flipV=1;" vertex="1" parent="1">
          <mxGeometry x="284.81" y="475.9" width="172.44" height="34.1" as="geometry" />
        </mxCell>
        <mxCell id="nSRVxIwpDMMca3vvs-4J-7" value="" style="edgeStyle=orthogonalEdgeStyle;rounded=1;orthogonalLoop=1;jettySize=auto;html=1;flowAnimation=0;strokeColor=#CC0066;strokeWidth=2;" edge="1" parent="1" source="nSRVxIwpDMMca3vvs-4J-37" target="nSRVxIwpDMMca3vvs-4J-8">
          <mxGeometry relative="1" as="geometry">
            <mxPoint x="361" y="922" as="sourcePoint" />
            <Array as="points">
              <mxPoint x="361" y="982" />
              <mxPoint x="361" y="982" />
            </Array>
          </mxGeometry>
        </mxCell>
        <mxCell id="nSRVxIwpDMMca3vvs-4J-8" value="&lt;b&gt;To be continue to model_training component&lt;/b&gt;" style="whiteSpace=wrap;html=1;fillColor=#f8cecc;strokeColor=#b85450;rounded=1;" vertex="1" parent="1">
          <mxGeometry x="280" y="1012" width="150" height="60" as="geometry" />
        </mxCell>
        <mxCell id="nSRVxIwpDMMca3vvs-4J-9" value="" style="edgeStyle=segmentEdgeStyle;endArrow=classic;html=1;curved=0;rounded=1;endSize=8;startSize=8;flowAnimation=1;strokeWidth=2;strokeColor=#CC0066;" edge="1" parent="1">
          <mxGeometry width="50" height="50" relative="1" as="geometry">
            <mxPoint x="621" y="416" as="sourcePoint" />
            <mxPoint x="461" y="496" as="targetPoint" />
            <Array as="points">
              <mxPoint x="621" y="496" />
              <mxPoint x="461" y="496" />
            </Array>
          </mxGeometry>
        </mxCell>
        <mxCell id="nSRVxIwpDMMca3vvs-4J-10" value="&lt;b&gt;Data Transformation Config&lt;/b&gt;" style="rounded=1;whiteSpace=wrap;html=1;strokeWidth=4;fillColor=#FFFFFF;strokeColor=#d6b656;shadow=0;glass=0;flipV=1;" vertex="1" parent="1">
          <mxGeometry x="538" y="377.9" width="172.44" height="34.1" as="geometry" />
        </mxCell>
        <mxCell id="nSRVxIwpDMMca3vvs-4J-11" value="data_transformation_dir" style="whiteSpace=wrap;html=1;rounded=1;arcSize=50;align=center;verticalAlign=middle;strokeWidth=1;autosize=1;spacing=4;treeFolding=1;treeMoving=1;newEdgeStyle={&quot;edgeStyle&quot;:&quot;entityRelationEdgeStyle&quot;,&quot;startArrow&quot;:&quot;none&quot;,&quot;endArrow&quot;:&quot;none&quot;,&quot;segment&quot;:10,&quot;curved&quot;:1,&quot;sourcePerimeterSpacing&quot;:0,&quot;targetPerimeterSpacing&quot;:0};strokeColor=none;" vertex="1" parent="1">
          <mxGeometry x="757" y="250" width="135" height="30" as="geometry" />
        </mxCell>
        <mxCell id="nSRVxIwpDMMca3vvs-4J-12" value="" style="edgeStyle=entityRelationEdgeStyle;startArrow=none;endArrow=none;segment=10;curved=1;sourcePerimeterSpacing=0;targetPerimeterSpacing=0;rounded=0;strokeWidth=2;strokeColor=#9933FF;exitX=0.711;exitY=1.079;exitDx=0;exitDy=0;exitPerimeter=0;" edge="1" parent="1" target="nSRVxIwpDMMca3vvs-4J-11">
          <mxGeometry relative="1" as="geometry">
            <mxPoint x="662.60484" y="375.2060999999999" as="sourcePoint" />
            <Array as="points">
              <mxPoint x="651" y="366" />
              <mxPoint x="723" y="346" />
            </Array>
          </mxGeometry>
        </mxCell>
        <mxCell id="nSRVxIwpDMMca3vvs-4J-13" value="unique_labels_path" style="whiteSpace=wrap;html=1;rounded=1;arcSize=50;align=center;verticalAlign=middle;strokeWidth=1;autosize=1;spacing=4;treeFolding=1;treeMoving=1;newEdgeStyle={&quot;edgeStyle&quot;:&quot;entityRelationEdgeStyle&quot;,&quot;startArrow&quot;:&quot;none&quot;,&quot;endArrow&quot;:&quot;none&quot;,&quot;segment&quot;:10,&quot;curved&quot;:1,&quot;sourcePerimeterSpacing&quot;:0,&quot;targetPerimeterSpacing&quot;:0};strokeColor=none;" vertex="1" parent="1">
          <mxGeometry x="757" y="509" width="150" height="30" as="geometry" />
        </mxCell>
        <mxCell id="nSRVxIwpDMMca3vvs-4J-14" value="" style="edgeStyle=entityRelationEdgeStyle;startArrow=none;endArrow=none;segment=10;curved=1;sourcePerimeterSpacing=0;targetPerimeterSpacing=0;rounded=0;exitX=0.692;exitY=0.023;exitDx=0;exitDy=0;strokeWidth=2;strokeColor=#FF3333;exitPerimeter=0;" edge="1" parent="1" target="nSRVxIwpDMMca3vvs-4J-13">
          <mxGeometry relative="1" as="geometry">
            <mxPoint x="659.3284799999999" y="411.21569999999986" as="sourcePoint" />
            <Array as="points">
              <mxPoint x="661" y="410" />
              <mxPoint x="690" y="487.81" />
              <mxPoint x="680" y="487.81" />
              <mxPoint x="742" y="467.81" />
            </Array>
          </mxGeometry>
        </mxCell>
        <mxCell id="nSRVxIwpDMMca3vvs-4J-15" value="df_test_path" style="whiteSpace=wrap;html=1;rounded=1;arcSize=50;align=center;verticalAlign=middle;strokeWidth=1;autosize=1;spacing=4;treeFolding=1;treeMoving=1;newEdgeStyle={&quot;edgeStyle&quot;:&quot;entityRelationEdgeStyle&quot;,&quot;startArrow&quot;:&quot;none&quot;,&quot;endArrow&quot;:&quot;none&quot;,&quot;segment&quot;:10,&quot;curved&quot;:1,&quot;sourcePerimeterSpacing&quot;:0,&quot;targetPerimeterSpacing&quot;:0};strokeColor=none;" vertex="1" parent="1">
          <mxGeometry x="757" y="470.95" width="110" height="30" as="geometry" />
        </mxCell>
        <mxCell id="nSRVxIwpDMMca3vvs-4J-16" value="" style="edgeStyle=entityRelationEdgeStyle;startArrow=none;endArrow=none;segment=10;curved=1;sourcePerimeterSpacing=0;targetPerimeterSpacing=0;rounded=0;exitX=0.846;exitY=-0.023;exitDx=0;exitDy=0;exitPerimeter=0;strokeWidth=2;strokeColor=#004C99;" edge="1" parent="1" target="nSRVxIwpDMMca3vvs-4J-15">
          <mxGeometry relative="1" as="geometry">
            <mxPoint x="685.8842400000001" y="412.7842999999999" as="sourcePoint" />
            <Array as="points">
              <mxPoint x="700" y="442.81" />
              <mxPoint x="690" y="452.63" />
              <mxPoint x="680" y="452.63" />
              <mxPoint x="742" y="432.63" />
            </Array>
          </mxGeometry>
        </mxCell>
        <mxCell id="nSRVxIwpDMMca3vvs-4J-17" value="df_val_path" style="whiteSpace=wrap;html=1;rounded=1;arcSize=50;align=center;verticalAlign=middle;strokeWidth=1;autosize=1;spacing=4;treeFolding=1;treeMoving=1;newEdgeStyle={&quot;edgeStyle&quot;:&quot;entityRelationEdgeStyle&quot;,&quot;startArrow&quot;:&quot;none&quot;,&quot;endArrow&quot;:&quot;none&quot;,&quot;segment&quot;:10,&quot;curved&quot;:1,&quot;sourcePerimeterSpacing&quot;:0,&quot;targetPerimeterSpacing&quot;:0};strokeColor=none;" vertex="1" parent="1">
          <mxGeometry x="758" y="432.81" width="106" height="30" as="geometry" />
        </mxCell>
        <mxCell id="nSRVxIwpDMMca3vvs-4J-18" value="" style="edgeStyle=entityRelationEdgeStyle;startArrow=none;endArrow=none;segment=10;curved=1;sourcePerimeterSpacing=0;targetPerimeterSpacing=0;rounded=0;exitX=0.957;exitY=0;exitDx=0;exitDy=0;exitPerimeter=0;strokeWidth=2;strokeColor=#99004D;" edge="1" parent="1" target="nSRVxIwpDMMca3vvs-4J-17">
          <mxGeometry relative="1" as="geometry">
            <mxPoint x="701.0250799999999" y="411.9999999999999" as="sourcePoint" />
            <Array as="points">
              <mxPoint x="696" y="409.71000000000004" />
              <mxPoint x="686" y="419.53" />
              <mxPoint x="676" y="419.53" />
              <mxPoint x="738" y="399.53" />
            </Array>
          </mxGeometry>
        </mxCell>
        <mxCell id="nSRVxIwpDMMca3vvs-4J-19" value="df_train_path" style="whiteSpace=wrap;html=1;rounded=1;arcSize=50;align=center;verticalAlign=middle;strokeWidth=1;autosize=1;spacing=4;treeFolding=1;treeMoving=1;newEdgeStyle={&quot;edgeStyle&quot;:&quot;entityRelationEdgeStyle&quot;,&quot;startArrow&quot;:&quot;none&quot;,&quot;endArrow&quot;:&quot;none&quot;,&quot;segment&quot;:10,&quot;curved&quot;:1,&quot;sourcePerimeterSpacing&quot;:0,&quot;targetPerimeterSpacing&quot;:0};strokeColor=none;" vertex="1" parent="1">
          <mxGeometry x="758" y="399" width="110" height="30" as="geometry" />
        </mxCell>
        <mxCell id="nSRVxIwpDMMca3vvs-4J-20" value="" style="edgeStyle=entityRelationEdgeStyle;startArrow=none;endArrow=none;segment=10;curved=1;sourcePerimeterSpacing=0;targetPerimeterSpacing=0;rounded=0;exitX=1;exitY=0.75;exitDx=0;exitDy=0;strokeWidth=2;strokeColor=#660000;" edge="1" parent="1" target="nSRVxIwpDMMca3vvs-4J-19">
          <mxGeometry relative="1" as="geometry">
            <mxPoint x="713.44" y="398.475" as="sourcePoint" />
            <Array as="points">
              <mxPoint x="701" y="365.09000000000003" />
              <mxPoint x="722" y="405" />
              <mxPoint x="691" y="374.90999999999997" />
              <mxPoint x="681" y="374.90999999999997" />
              <mxPoint x="743" y="354.90999999999997" />
            </Array>
          </mxGeometry>
        </mxCell>
        <mxCell id="nSRVxIwpDMMca3vvs-4J-21" value="labels_to_ids_path" style="whiteSpace=wrap;html=1;rounded=1;arcSize=50;align=center;verticalAlign=middle;strokeWidth=1;autosize=1;spacing=4;treeFolding=1;treeMoving=1;newEdgeStyle={&quot;edgeStyle&quot;:&quot;entityRelationEdgeStyle&quot;,&quot;startArrow&quot;:&quot;none&quot;,&quot;endArrow&quot;:&quot;none&quot;,&quot;segment&quot;:10,&quot;curved&quot;:1,&quot;sourcePerimeterSpacing&quot;:0,&quot;targetPerimeterSpacing&quot;:0};strokeColor=none;" vertex="1" parent="1">
          <mxGeometry x="757" y="288" width="140" height="30" as="geometry" />
        </mxCell>
        <mxCell id="nSRVxIwpDMMca3vvs-4J-22" value="" style="edgeStyle=entityRelationEdgeStyle;startArrow=none;endArrow=none;segment=10;curved=1;sourcePerimeterSpacing=0;targetPerimeterSpacing=0;rounded=0;strokeWidth=2;strokeColor=#994C00;exitX=0.813;exitY=1.103;exitDx=0;exitDy=0;exitPerimeter=0;" edge="1" parent="1" target="nSRVxIwpDMMca3vvs-4J-21">
          <mxGeometry relative="1" as="geometry">
            <mxPoint x="680.19372" y="374.3876999999999" as="sourcePoint" />
            <Array as="points">
              <mxPoint x="661" y="403" />
              <mxPoint x="733" y="383" />
            </Array>
          </mxGeometry>
        </mxCell>
        <mxCell id="nSRVxIwpDMMca3vvs-4J-23" value="ids_to_labels_path" style="whiteSpace=wrap;html=1;rounded=1;arcSize=50;align=center;verticalAlign=middle;strokeWidth=1;autosize=1;spacing=4;treeFolding=1;treeMoving=1;newEdgeStyle={&quot;edgeStyle&quot;:&quot;entityRelationEdgeStyle&quot;,&quot;startArrow&quot;:&quot;none&quot;,&quot;endArrow&quot;:&quot;none&quot;,&quot;segment&quot;:10,&quot;curved&quot;:1,&quot;sourcePerimeterSpacing&quot;:0,&quot;targetPerimeterSpacing&quot;:0};strokeColor=none;" vertex="1" parent="1">
          <mxGeometry x="754.5" y="329" width="140" height="30" as="geometry" />
        </mxCell>
        <mxCell id="nSRVxIwpDMMca3vvs-4J-24" value="" style="edgeStyle=entityRelationEdgeStyle;startArrow=none;endArrow=none;segment=10;curved=1;sourcePerimeterSpacing=0;targetPerimeterSpacing=0;rounded=0;strokeWidth=2;strokeColor=#006600;exitX=0.948;exitY=1.009;exitDx=0;exitDy=0;exitPerimeter=0;" edge="1" parent="1" target="nSRVxIwpDMMca3vvs-4J-23">
          <mxGeometry relative="1" as="geometry">
            <mxPoint x="703.4731200000001" y="377.59309999999994" as="sourcePoint" />
            <Array as="points">
              <mxPoint x="711" y="370" />
              <mxPoint x="671" y="433" />
              <mxPoint x="743" y="413" />
            </Array>
          </mxGeometry>
        </mxCell>
        <mxCell id="nSRVxIwpDMMca3vvs-4J-25" value="ids_to_labels_gcp_path" style="whiteSpace=wrap;html=1;rounded=1;arcSize=50;align=center;verticalAlign=middle;strokeWidth=1;autosize=1;spacing=4;treeFolding=1;treeMoving=1;newEdgeStyle={&quot;edgeStyle&quot;:&quot;entityRelationEdgeStyle&quot;,&quot;startArrow&quot;:&quot;none&quot;,&quot;endArrow&quot;:&quot;none&quot;,&quot;segment&quot;:10,&quot;curved&quot;:1,&quot;sourcePerimeterSpacing&quot;:0,&quot;targetPerimeterSpacing&quot;:0};strokeColor=none;" vertex="1" parent="1">
          <mxGeometry x="758" y="360" width="170" height="30" as="geometry" />
        </mxCell>
        <mxCell id="nSRVxIwpDMMca3vvs-4J-26" value="" style="edgeStyle=entityRelationEdgeStyle;startArrow=none;endArrow=none;segment=10;curved=1;sourcePerimeterSpacing=0;targetPerimeterSpacing=0;rounded=0;strokeWidth=2;strokeColor=#666600;exitX=0.948;exitY=1.009;exitDx=0;exitDy=0;exitPerimeter=0;" edge="1" parent="1" target="nSRVxIwpDMMca3vvs-4J-25">
          <mxGeometry relative="1" as="geometry">
            <mxPoint x="712.5" y="395" as="sourcePoint" />
            <Array as="points">
              <mxPoint x="720.5" y="387" />
              <mxPoint x="680.5" y="450" />
              <mxPoint x="752.5" y="430" />
            </Array>
          </mxGeometry>
        </mxCell>
        <mxCell id="nSRVxIwpDMMca3vvs-4J-27" value="&lt;b&gt;Data Ingestion Artifacts&lt;/b&gt;" style="rounded=1;whiteSpace=wrap;html=1;strokeWidth=4;fillColor=#FFFFFF;strokeColor=#d6b656;shadow=0;glass=0;flipV=1;" vertex="1" parent="1">
          <mxGeometry x="91" y="377.9" width="172.44" height="34.1" as="geometry" />
        </mxCell>
        <mxCell id="nSRVxIwpDMMca3vvs-4J-28" value="zip_data_file_path" style="whiteSpace=wrap;html=1;rounded=1;arcSize=50;align=center;verticalAlign=middle;strokeWidth=1;autosize=1;spacing=4;treeFolding=1;treeMoving=1;newEdgeStyle={&quot;edgeStyle&quot;:&quot;entityRelationEdgeStyle&quot;,&quot;startArrow&quot;:&quot;none&quot;,&quot;endArrow&quot;:&quot;none&quot;,&quot;segment&quot;:10,&quot;curved&quot;:1,&quot;sourcePerimeterSpacing&quot;:0,&quot;targetPerimeterSpacing&quot;:0};strokeColor=none;" vertex="1" parent="1">
          <mxGeometry x="-59" y="368" width="109" height="30" as="geometry" />
        </mxCell>
        <mxCell id="nSRVxIwpDMMca3vvs-4J-29" value="" style="edgeStyle=entityRelationEdgeStyle;startArrow=none;endArrow=none;segment=10;curved=1;sourcePerimeterSpacing=0;targetPerimeterSpacing=0;rounded=0;exitX=0;exitY=0.5;exitDx=0;exitDy=0;strokeColor=#994C00;strokeWidth=2;" edge="1" parent="1" source="nSRVxIwpDMMca3vvs-4J-27" target="nSRVxIwpDMMca3vvs-4J-28">
          <mxGeometry relative="1" as="geometry">
            <mxPoint x="-9" y="500" as="sourcePoint" />
          </mxGeometry>
        </mxCell>
        <mxCell id="nSRVxIwpDMMca3vvs-4J-30" value="csv_data_file_path" style="whiteSpace=wrap;html=1;rounded=1;arcSize=50;align=center;verticalAlign=middle;strokeWidth=1;autosize=1;spacing=4;treeFolding=1;treeMoving=1;newEdgeStyle={&quot;edgeStyle&quot;:&quot;entityRelationEdgeStyle&quot;,&quot;startArrow&quot;:&quot;none&quot;,&quot;endArrow&quot;:&quot;none&quot;,&quot;segment&quot;:10,&quot;curved&quot;:1,&quot;sourcePerimeterSpacing&quot;:0,&quot;targetPerimeterSpacing&quot;:0};strokeColor=none;" vertex="1" parent="1">
          <mxGeometry x="-59" y="399" width="108" height="30" as="geometry" />
        </mxCell>
        <mxCell id="nSRVxIwpDMMca3vvs-4J-31" value="" style="edgeStyle=entityRelationEdgeStyle;startArrow=none;endArrow=none;segment=10;curved=1;sourcePerimeterSpacing=0;targetPerimeterSpacing=0;rounded=0;exitX=0;exitY=0.5;exitDx=0;exitDy=0;strokeColor=#990099;strokeWidth=2;" edge="1" parent="1" source="nSRVxIwpDMMca3vvs-4J-27" target="nSRVxIwpDMMca3vvs-4J-30">
          <mxGeometry relative="1" as="geometry">
            <mxPoint x="81" y="400" as="sourcePoint" />
          </mxGeometry>
        </mxCell>
        <mxCell id="nSRVxIwpDMMca3vvs-4J-32" value="" style="edgeStyle=segmentEdgeStyle;endArrow=classic;html=1;curved=0;rounded=0;endSize=8;startSize=8;exitX=0.5;exitY=1;exitDx=0;exitDy=0;strokeWidth=2;strokeColor=#CC0066;flowAnimation=1;" edge="1" parent="1">
          <mxGeometry width="50" height="50" relative="1" as="geometry">
            <mxPoint x="190.22000000000003" y="413.9999999999999" as="sourcePoint" />
            <mxPoint x="284" y="491" as="targetPoint" />
            <Array as="points">
              <mxPoint x="190" y="490" />
            </Array>
          </mxGeometry>
        </mxCell>
        <mxCell id="nSRVxIwpDMMca3vvs-4J-33" value="" style="edgeStyle=segmentEdgeStyle;endArrow=classic;html=1;curved=0;rounded=0;endSize=8;startSize=8;exitX=0.437;exitY=-0.012;exitDx=0;exitDy=0;exitPerimeter=0;strokeColor=#CC0066;strokeWidth=2;flowAnimation=1;" edge="1" parent="1">
          <mxGeometry width="50" height="50" relative="1" as="geometry">
            <mxPoint x="175.35627999999997" y="411.9992" as="sourcePoint" />
            <mxPoint x="49" y="489.59000000000003" as="targetPoint" />
            <Array as="points">
              <mxPoint x="175" y="490" />
            </Array>
          </mxGeometry>
        </mxCell>
        <mxCell id="nSRVxIwpDMMca3vvs-4J-34" value="" style="shape=image;html=1;verticalAlign=top;verticalLabelPosition=bottom;labelBackgroundColor=#ffffff;imageAspect=0;aspect=fixed;image=https://cdn3.iconfinder.com/data/icons/document-icons-2/30/647702-excel-128.png;rounded=1;" vertex="1" parent="1">
          <mxGeometry x="4" y="470" width="40" height="40" as="geometry" />
        </mxCell>
        <mxCell id="nSRVxIwpDMMca3vvs-4J-35" value="&lt;font style=&quot;font-size: 13px;&quot;&gt;&lt;b&gt;ner.csv&lt;/b&gt;&lt;/font&gt;" style="rounded=1;whiteSpace=wrap;html=1;strokeColor=none;" vertex="1" parent="1">
          <mxGeometry x="14" y="514" width="30" height="15" as="geometry" />
        </mxCell>
        <mxCell id="nSRVxIwpDMMca3vvs-4J-36" value="" style="edgeStyle=segmentEdgeStyle;endArrow=classic;html=1;curved=0;rounded=0;endSize=8;startSize=8;entryX=0;entryY=0.5;entryDx=0;entryDy=0;strokeWidth=2;flowAnimation=1;" edge="1" parent="1" target="nSRVxIwpDMMca3vvs-4J-2">
          <mxGeometry width="50" height="50" relative="1" as="geometry">
            <mxPoint x="20" y="540" as="sourcePoint" />
            <mxPoint x="113.80000000000001" y="586" as="targetPoint" />
            <Array as="points">
              <mxPoint x="20" y="585" />
            </Array>
          </mxGeometry>
        </mxCell>
        <mxCell id="nSRVxIwpDMMca3vvs-4J-37" value="&lt;b&gt;data_transformation_artifact&lt;/b&gt;" style="whiteSpace=wrap;html=1;fillColor=#FFFF99;strokeColor=#d6b656;rounded=1;" vertex="1" parent="1">
          <mxGeometry x="270" y="922" width="167.5" height="40" as="geometry" />
        </mxCell>
        <mxCell id="nSRVxIwpDMMca3vvs-4J-38" value="&lt;b&gt;df_val&lt;/b&gt;" style="whiteSpace=wrap;html=1;fillColor=#6666FF;strokeColor=#3700CC;fontColor=#ffffff;rounded=1;flipH=1;" vertex="1" parent="1">
          <mxGeometry x="370" y="670" width="120" height="30" as="geometry" />
        </mxCell>
        <mxCell id="nSRVxIwpDMMca3vvs-4J-39" value="&lt;b&gt;df_test&lt;/b&gt;" style="whiteSpace=wrap;html=1;fillColor=#6666FF;strokeColor=#3700CC;fontColor=#ffffff;rounded=1;flipH=1;" vertex="1" parent="1">
          <mxGeometry x="522" y="670" width="119.94" height="30" as="geometry" />
        </mxCell>
        <mxCell id="nSRVxIwpDMMca3vvs-4J-40" value="&lt;b&gt;unique_labels&lt;/b&gt;" style="whiteSpace=wrap;html=1;fillColor=#6666FF;strokeColor=#3700CC;fontColor=#ffffff;rounded=1;flipH=1;" vertex="1" parent="1">
          <mxGeometry x="670" y="670" width="119.94" height="30" as="geometry" />
        </mxCell>
        <mxCell id="nSRVxIwpDMMca3vvs-4J-41" value="&lt;b&gt;ids_to_labels&lt;/b&gt;" style="whiteSpace=wrap;html=1;fillColor=#6666FF;strokeColor=#3700CC;fontColor=#ffffff;rounded=1;flipH=1;" vertex="1" parent="1">
          <mxGeometry x="80" y="670" width="120" height="30" as="geometry" />
        </mxCell>
        <mxCell id="nSRVxIwpDMMca3vvs-4J-42" value="&lt;b&gt;labels_to_ids&lt;/b&gt;" style="whiteSpace=wrap;html=1;fillColor=#6666FF;strokeColor=#3700CC;fontColor=#ffffff;rounded=1;flipH=1;" vertex="1" parent="1">
          <mxGeometry x="-70" y="670" width="120" height="30" as="geometry" />
        </mxCell>
        <mxCell id="nSRVxIwpDMMca3vvs-4J-43" value="" style="shape=curlyBracket;whiteSpace=wrap;html=1;rounded=1;labelPosition=left;verticalLabelPosition=middle;align=right;verticalAlign=middle;rotation=90;strokeWidth=2;" vertex="1" parent="1">
          <mxGeometry x="325.44" y="262.19" width="63.63" height="747.5" as="geometry" />
        </mxCell>
        <mxCell id="nSRVxIwpDMMca3vvs-4J-44" value="" style="line;strokeWidth=2;direction=south;html=1;" vertex="1" parent="1">
          <mxGeometry x="135" y="637" width="9" height="33" as="geometry" />
        </mxCell>
        <mxCell id="nSRVxIwpDMMca3vvs-4J-45" value="" style="line;strokeWidth=2;direction=south;html=1;" vertex="1" parent="1">
          <mxGeometry x="280" y="636" width="9" height="33" as="geometry" />
        </mxCell>
        <mxCell id="nSRVxIwpDMMca3vvs-4J-46" value="" style="line;strokeWidth=2;direction=south;html=1;" vertex="1" parent="1">
          <mxGeometry x="428" y="636" width="9" height="33" as="geometry" />
        </mxCell>
        <mxCell id="nSRVxIwpDMMca3vvs-4J-47" value="" style="line;strokeWidth=2;direction=south;html=1;" vertex="1" parent="1">
          <mxGeometry x="584" y="637" width="9" height="33" as="geometry" />
        </mxCell>
        <mxCell id="nSRVxIwpDMMca3vvs-4J-48" value="" style="endArrow=classic;html=1;rounded=0;entryX=0.005;entryY=0.114;entryDx=0;entryDy=0;entryPerimeter=0;" edge="1" parent="1" target="nSRVxIwpDMMca3vvs-4J-4">
          <mxGeometry width="50" height="50" relative="1" as="geometry">
            <mxPoint x="-10" y="700" as="sourcePoint" />
            <mxPoint x="246.00000000000023" y="819" as="targetPoint" />
          </mxGeometry>
        </mxCell>
        <mxCell id="nSRVxIwpDMMca3vvs-4J-49" value="" style="endArrow=classic;html=1;rounded=0;entryX=1;entryY=0;entryDx=0;entryDy=0;exitX=0.5;exitY=1;exitDx=0;exitDy=0;" edge="1" parent="1" source="nSRVxIwpDMMca3vvs-4J-40" target="nSRVxIwpDMMca3vvs-4J-4">
          <mxGeometry width="50" height="50" relative="1" as="geometry">
            <mxPoint x="570" y="724" as="sourcePoint" />
            <mxPoint x="832.97" y="841" as="targetPoint" />
          </mxGeometry>
        </mxCell>
        <mxCell id="nSRVxIwpDMMca3vvs-4J-50" value="" style="endArrow=classic;html=1;rounded=0;entryX=0.005;entryY=0.114;entryDx=0;entryDy=0;exitX=0.5;exitY=1;exitDx=0;exitDy=0;entryPerimeter=0;" edge="1" parent="1" source="nSRVxIwpDMMca3vvs-4J-41">
          <mxGeometry width="50" height="50" relative="1" as="geometry">
            <mxPoint x="28.029999999999973" y="697" as="sourcePoint" />
            <mxPoint x="291" y="814" as="targetPoint" />
          </mxGeometry>
        </mxCell>
        <mxCell id="nSRVxIwpDMMca3vvs-4J-51" value="" style="endArrow=classic;html=1;rounded=0;exitX=0.5;exitY=1;exitDx=0;exitDy=0;exitPerimeter=0;" edge="1" parent="1" source="nSRVxIwpDMMca3vvs-4J-39">
          <mxGeometry width="50" height="50" relative="1" as="geometry">
            <mxPoint x="581.97" y="705" as="sourcePoint" />
            <mxPoint x="410" y="815" as="targetPoint" />
          </mxGeometry>
        </mxCell>
        <mxCell id="nSRVxIwpDMMca3vvs-4J-52" value="" style="endArrow=classic;html=1;rounded=0;entryX=0.005;entryY=0.114;entryDx=0;entryDy=0;exitX=0.5;exitY=1;exitDx=0;exitDy=0;entryPerimeter=0;" edge="1" parent="1" source="nSRVxIwpDMMca3vvs-4J-3">
          <mxGeometry width="50" height="50" relative="1" as="geometry">
            <mxPoint x="178" y="701" as="sourcePoint" />
            <mxPoint x="331" y="815" as="targetPoint" />
          </mxGeometry>
        </mxCell>
        <mxCell id="nSRVxIwpDMMca3vvs-4J-53" value="" style="endArrow=classic;html=1;rounded=0;entryX=0.005;entryY=0.114;entryDx=0;entryDy=0;exitX=0.5;exitY=1;exitDx=0;exitDy=0;entryPerimeter=0;" edge="1" parent="1" source="nSRVxIwpDMMca3vvs-4J-38">
          <mxGeometry width="50" height="50" relative="1" as="geometry">
            <mxPoint x="321" y="701" as="sourcePoint" />
            <mxPoint x="366" y="816" as="targetPoint" />
          </mxGeometry>
        </mxCell>
        <mxCell id="nSRVxIwpDMMca3vvs-4J-54" value="label_to_ids_path" style="whiteSpace=wrap;html=1;shape=partialRectangle;top=0;left=0;bottom=1;right=0;points=[[0,1],[1,1]];fillColor=none;align=center;verticalAlign=bottom;routingCenterY=0.5;snapToPoint=1;recursiveResize=0;autosize=1;treeFolding=1;treeMoving=1;newEdgeStyle={&quot;edgeStyle&quot;:&quot;entityRelationEdgeStyle&quot;,&quot;startArrow&quot;:&quot;none&quot;,&quot;endArrow&quot;:&quot;none&quot;,&quot;segment&quot;:10,&quot;curved&quot;:1,&quot;sourcePerimeterSpacing&quot;:0,&quot;targetPerimeterSpacing&quot;:0};strokeColor=none;" vertex="1" parent="1">
          <mxGeometry x="516.97" y="827" width="113.03" height="30" as="geometry" />
        </mxCell>
        <mxCell id="nSRVxIwpDMMca3vvs-4J-55" value="" style="edgeStyle=entityRelationEdgeStyle;startArrow=none;endArrow=none;segment=10;curved=1;sourcePerimeterSpacing=0;targetPerimeterSpacing=0;rounded=0;strokeWidth=2;strokeColor=#663300;" edge="1" parent="1" target="nSRVxIwpDMMca3vvs-4J-54">
          <mxGeometry relative="1" as="geometry">
            <mxPoint x="414" y="916" as="sourcePoint" />
            <Array as="points">
              <mxPoint x="396.5" y="896" />
            </Array>
          </mxGeometry>
        </mxCell>
        <mxCell id="nSRVxIwpDMMca3vvs-4J-56" value="ids_to_labels_path" style="whiteSpace=wrap;html=1;shape=partialRectangle;top=0;left=0;bottom=1;right=0;points=[[0,1],[1,1]];fillColor=none;align=center;verticalAlign=bottom;routingCenterY=0.5;snapToPoint=1;recursiveResize=0;autosize=1;treeFolding=1;treeMoving=1;newEdgeStyle={&quot;edgeStyle&quot;:&quot;entityRelationEdgeStyle&quot;,&quot;startArrow&quot;:&quot;none&quot;,&quot;endArrow&quot;:&quot;none&quot;,&quot;segment&quot;:10,&quot;curved&quot;:1,&quot;sourcePerimeterSpacing&quot;:0,&quot;targetPerimeterSpacing&quot;:0};strokeColor=none;" vertex="1" parent="1">
          <mxGeometry x="511.97" y="860" width="140" height="30" as="geometry" />
        </mxCell>
        <mxCell id="nSRVxIwpDMMca3vvs-4J-57" value="" style="edgeStyle=entityRelationEdgeStyle;startArrow=none;endArrow=none;segment=10;curved=1;sourcePerimeterSpacing=0;targetPerimeterSpacing=0;rounded=0;strokeWidth=2;strokeColor=#666600;" edge="1" parent="1">
          <mxGeometry relative="1" as="geometry">
            <mxPoint x="433.5" y="920" as="sourcePoint" />
            <mxPoint x="520" y="880" as="targetPoint" />
            <Array as="points">
              <mxPoint x="518" y="880" />
            </Array>
          </mxGeometry>
        </mxCell>
        <mxCell id="nSRVxIwpDMMca3vvs-4J-58" value="unique_labels_path" style="whiteSpace=wrap;html=1;shape=partialRectangle;top=0;left=0;bottom=1;right=0;points=[[0,1],[1,1]];fillColor=none;align=center;verticalAlign=bottom;routingCenterY=0.5;snapToPoint=1;recursiveResize=0;autosize=1;treeFolding=1;treeMoving=1;newEdgeStyle={&quot;edgeStyle&quot;:&quot;entityRelationEdgeStyle&quot;,&quot;startArrow&quot;:&quot;none&quot;,&quot;endArrow&quot;:&quot;none&quot;,&quot;segment&quot;:10,&quot;curved&quot;:1,&quot;sourcePerimeterSpacing&quot;:0,&quot;targetPerimeterSpacing&quot;:0};strokeColor=none;" vertex="1" parent="1">
          <mxGeometry x="511.97" y="1000" width="140" height="30" as="geometry" />
        </mxCell>
        <mxCell id="nSRVxIwpDMMca3vvs-4J-59" value="" style="edgeStyle=entityRelationEdgeStyle;startArrow=none;endArrow=none;segment=10;curved=1;sourcePerimeterSpacing=0;targetPerimeterSpacing=0;rounded=0;exitX=0.915;exitY=1.136;exitDx=0;exitDy=0;exitPerimeter=0;strokeWidth=2;strokeColor=#336600;" edge="1" parent="1" target="nSRVxIwpDMMca3vvs-4J-58">
          <mxGeometry relative="1" as="geometry">
            <mxPoint x="412.2624999999998" y="963.44" as="sourcePoint" />
          </mxGeometry>
        </mxCell>
        <mxCell id="nSRVxIwpDMMca3vvs-4J-60" value="" style="edgeStyle=orthogonalEdgeStyle;rounded=1;orthogonalLoop=1;jettySize=auto;html=1;flowAnimation=0;strokeColor=#CC0066;strokeWidth=2;exitX=0.5;exitY=1;exitDx=0;exitDy=0;" edge="1" parent="1" source="nSRVxIwpDMMca3vvs-4J-4">
          <mxGeometry relative="1" as="geometry">
            <mxPoint x="361" y="869" as="sourcePoint" />
            <Array as="points">
              <mxPoint x="361" y="851" />
            </Array>
            <mxPoint x="361" y="919" as="targetPoint" />
          </mxGeometry>
        </mxCell>
        <mxCell id="nSRVxIwpDMMca3vvs-4J-61" value="df_test_path" style="whiteSpace=wrap;html=1;shape=partialRectangle;top=0;left=0;bottom=1;right=0;points=[[0,1],[1,1]];fillColor=none;align=center;verticalAlign=bottom;routingCenterY=0.5;snapToPoint=1;recursiveResize=0;autosize=1;treeFolding=1;treeMoving=1;newEdgeStyle={&quot;edgeStyle&quot;:&quot;entityRelationEdgeStyle&quot;,&quot;startArrow&quot;:&quot;none&quot;,&quot;endArrow&quot;:&quot;none&quot;,&quot;segment&quot;:10,&quot;curved&quot;:1,&quot;sourcePerimeterSpacing&quot;:0,&quot;targetPerimeterSpacing&quot;:0};strokeColor=none;" vertex="1" parent="1">
          <mxGeometry x="526.97" y="965" width="73.03" height="30" as="geometry" />
        </mxCell>
        <mxCell id="nSRVxIwpDMMca3vvs-4J-62" value="" style="edgeStyle=entityRelationEdgeStyle;startArrow=none;endArrow=none;segment=10;curved=1;sourcePerimeterSpacing=0;targetPerimeterSpacing=0;rounded=0;exitX=1;exitY=0.75;exitDx=0;exitDy=0;strokeWidth=2;strokeColor=#EA6B66;" edge="1" parent="1" source="nSRVxIwpDMMca3vvs-4J-37" target="nSRVxIwpDMMca3vvs-4J-61">
          <mxGeometry relative="1" as="geometry">
            <mxPoint x="430" y="1022" as="sourcePoint" />
          </mxGeometry>
        </mxCell>
        <mxCell id="nSRVxIwpDMMca3vvs-4J-63" value="df_val_path" style="whiteSpace=wrap;html=1;shape=partialRectangle;top=0;left=0;bottom=1;right=0;points=[[0,1],[1,1]];fillColor=none;align=center;verticalAlign=bottom;routingCenterY=0.5;snapToPoint=1;recursiveResize=0;autosize=1;treeFolding=1;treeMoving=1;newEdgeStyle={&quot;edgeStyle&quot;:&quot;entityRelationEdgeStyle&quot;,&quot;startArrow&quot;:&quot;none&quot;,&quot;endArrow&quot;:&quot;none&quot;,&quot;segment&quot;:10,&quot;curved&quot;:1,&quot;sourcePerimeterSpacing&quot;:0,&quot;targetPerimeterSpacing&quot;:0};strokeColor=none;" vertex="1" parent="1">
          <mxGeometry x="531.97" y="930" width="58.03" height="30" as="geometry" />
        </mxCell>
        <mxCell id="nSRVxIwpDMMca3vvs-4J-64" value="" style="edgeStyle=entityRelationEdgeStyle;startArrow=none;endArrow=none;segment=10;curved=1;sourcePerimeterSpacing=0;targetPerimeterSpacing=0;rounded=0;exitX=1;exitY=0.75;exitDx=0;exitDy=0;strokeWidth=2;strokeColor=#330066;" edge="1" parent="1" target="nSRVxIwpDMMca3vvs-4J-63">
          <mxGeometry relative="1" as="geometry">
            <mxPoint x="437" y="935" as="sourcePoint" />
          </mxGeometry>
        </mxCell>
        <mxCell id="nSRVxIwpDMMca3vvs-4J-65" value="df_train_path" style="whiteSpace=wrap;html=1;shape=partialRectangle;top=0;left=0;bottom=1;right=0;points=[[0,1],[1,1]];fillColor=none;align=center;verticalAlign=bottom;routingCenterY=0.5;snapToPoint=1;recursiveResize=0;autosize=1;treeFolding=1;treeMoving=1;newEdgeStyle={&quot;edgeStyle&quot;:&quot;entityRelationEdgeStyle&quot;,&quot;startArrow&quot;:&quot;none&quot;,&quot;endArrow&quot;:&quot;none&quot;,&quot;segment&quot;:10,&quot;curved&quot;:1,&quot;sourcePerimeterSpacing&quot;:0,&quot;targetPerimeterSpacing&quot;:0};strokeColor=none;" vertex="1" parent="1">
          <mxGeometry x="526" y="895" width="84" height="30" as="geometry" />
        </mxCell>
        <mxCell id="nSRVxIwpDMMca3vvs-4J-66" value="" style="edgeStyle=entityRelationEdgeStyle;startArrow=none;endArrow=none;segment=10;curved=1;sourcePerimeterSpacing=0;targetPerimeterSpacing=0;rounded=0;exitX=1;exitY=0.25;exitDx=0;exitDy=0;entryX=-0.028;entryY=0.425;entryDx=0;entryDy=0;entryPerimeter=0;strokeWidth=2;strokeColor=#004C99;" edge="1" parent="1" source="nSRVxIwpDMMca3vvs-4J-37" target="nSRVxIwpDMMca3vvs-4J-65">
          <mxGeometry relative="1" as="geometry">
            <mxPoint x="445" y="886" as="sourcePoint" />
          </mxGeometry>
        </mxCell>
      </root>
    </mxGraphModel>
  </diagram>
</mxfile>
